<svg width="142" height="44" viewBox="0 0 142 44" fill="none" xmlns="http://www.w3.org/2000/svg">
  <rect width="142" height="44" rx="4" fill="#171A1C"/>
  <path
    d="M25.4786 22.5696C25.4494 19.346 28.1393 17.7777 28.2623 17.7047C26.7389 15.5012 24.3776 15.2002 23.5479 15.1762C21.5647 14.9691 19.641 16.3534 18.6308 16.3534C17.6004 16.3534 16.0447 15.1962 14.368 15.2302C12.2104 15.2632 10.192 16.5024 9.08494 18.4268C6.80031 22.3506 8.50421 28.1167 10.6931 31.2883C11.788 32.8426 13.0674 34.5759 14.7421 34.5149C16.3804 34.4489 16.9924 33.4797 18.9695 33.4797C20.9285 33.4797 21.5032 34.5149 23.2111 34.4759C24.9694 34.4489 26.0765 32.9156 27.1331 31.3483C28.3984 29.5689 28.9065 27.8146 28.9267 27.7246C28.8864 27.7106 25.5129 26.4323 25.4786 22.5696ZM22.2523 13.0898C23.1335 11.9966 23.7364 10.5093 23.569 9C22.2936 9.05601 20.6986 9.87517 19.7801 10.9444C18.9675 11.8866 18.2416 13.4308 18.4291 14.8831C19.8618 14.9891 21.3328 14.166 22.2523 13.0898Z"
    fill="white"/>
  <path
    d="M52.2541 33.5076H49.9644L48.7102 29.5978H44.3507L43.1559 33.5076H40.9268L45.247 20.197H47.9147L52.2541 33.5076ZM48.3321 27.9575L47.1979 24.4819C47.0779 24.1268 46.8521 23.2906 46.5214 21.9744H46.481C46.348 22.5405 46.1352 23.3766 45.8438 24.4819L44.7288 27.9575H48.3321ZM63.3425 28.5907C63.3425 30.223 62.8959 31.5132 62.0016 32.4604C61.2011 33.3036 60.206 33.7246 59.0193 33.7246C57.7378 33.7246 56.8163 33.2716 56.2567 32.3634V37.3993H54.1072V27.0644C54.1072 26.0392 54.08 24.988 54.0276 23.9098H55.918L56.038 25.431H56.0783C56.7951 24.2848 57.883 23.7117 59.3429 23.7117C60.4842 23.7117 61.437 24.1588 62.1992 25.054C62.9604 25.9511 63.3425 27.1294 63.3425 28.5907ZM61.1527 28.6687C61.1527 27.7345 60.9409 26.9643 60.5155 26.3572C60.0507 25.7261 59.4266 25.41 58.6442 25.41C58.1139 25.41 57.632 25.5861 57.2015 25.9331C56.7699 26.2832 56.4876 26.7403 56.3556 27.3064C56.2966 27.5181 56.2631 27.736 56.2557 27.9555V29.5568C56.2557 30.254 56.4715 30.8431 56.903 31.3252C57.3345 31.8053 57.8951 32.0463 58.5847 32.0463C59.3943 32.0463 60.0245 31.7353 60.4751 31.1181C60.9268 30.499 61.1527 29.6829 61.1527 28.6687ZM74.4703 28.5907C74.4703 30.223 74.0236 31.5132 73.1293 32.4604C72.3278 33.3036 71.3337 33.7246 70.146 33.7246C68.8646 33.7246 67.943 33.2716 67.3835 32.3634V37.3993H65.2339V27.0644C65.2339 26.0392 65.2067 24.988 65.1543 23.9098H67.0447L67.1647 25.431H67.205C67.9209 24.2848 69.0087 23.7117 70.4696 23.7117C71.6099 23.7117 72.5627 24.1588 73.3269 25.054C74.0871 25.9511 74.4703 27.1294 74.4703 28.5907ZM72.2794 28.6687C72.2794 27.7345 72.0667 26.9643 71.6412 26.3572C71.1764 25.7261 70.5543 25.41 69.7719 25.41C69.2416 25.41 68.7597 25.5861 68.3272 25.9331C67.8956 26.2832 67.6144 26.7403 67.4823 27.3064C67.4167 27.5705 67.3815 27.7855 67.3815 27.9555V29.5568C67.3815 30.254 67.5982 30.8431 68.0277 31.3252C68.4592 31.8043 69.0198 32.0463 69.7115 32.0463C70.5221 32.0463 71.1522 31.7353 71.6019 31.1181C72.0536 30.499 72.2794 29.6829 72.2794 28.6687ZM86.9117 29.7739C86.9117 30.9071 86.5124 31.8283 85.719 32.5394C84.8459 33.3156 83.6269 33.7046 82.0642 33.7046C80.6204 33.7046 79.463 33.4286 78.5898 32.8755L79.0869 31.0981C80.0296 31.6522 81.065 31.9283 82.1922 31.9283C83.0028 31.9283 83.633 31.7463 84.0826 31.3852C84.5333 31.0231 84.7612 30.539 84.7612 29.9349C84.7612 29.3938 84.5726 28.9407 84.2026 28.5716C83.8306 28.2036 83.2156 27.8605 82.3515 27.5455C80.0024 26.6763 78.8268 25.405 78.8268 23.7327C78.8268 22.6405 79.2422 21.7463 80.0709 21.0472C80.8997 20.3491 81.9986 20 83.3658 20C84.5867 20 85.604 20.211 86.4116 20.6321L85.8722 22.3705C85.112 21.9624 84.254 21.7583 83.2942 21.7583C82.536 21.7583 81.9412 21.9434 81.5157 22.3114C81.1578 22.6405 80.9763 23.0416 80.9763 23.5177C80.9763 24.0428 81.183 24.4789 81.5943 24.8209C81.9512 25.136 82.6026 25.4791 83.5442 25.8471C84.6997 26.3092 85.5486 26.8473 86.092 27.4654C86.6395 28.0836 86.9117 28.8547 86.9117 29.7739ZM94.0368 25.5101H91.6675V30.17C91.6675 31.3552 92.0849 31.9463 92.9217 31.9463C93.3058 31.9463 93.6244 31.9143 93.8765 31.8473L93.936 33.4666C93.5125 33.6236 92.955 33.7026 92.2643 33.7026C91.4154 33.7026 90.752 33.4456 90.2731 32.9315C89.7962 32.4174 89.5563 31.5562 89.5563 30.344V25.5061H88.1448V23.9058H89.5563V22.1484L91.6675 21.5163V23.9058H94.0368V25.5101ZM104.706 28.6297C104.706 30.1049 104.28 31.3162 103.431 32.2634C102.543 33.2385 101.362 33.7246 99.8885 33.7246C98.4669 33.7246 97.3367 33.2575 96.4938 32.3244C95.651 31.3892 95.2295 30.211 95.2295 28.7897C95.2295 27.3024 95.6651 26.0842 96.5331 25.137C97.4032 24.1888 98.5748 23.7147 100.048 23.7147C101.467 23.7147 102.608 24.1828 103.471 25.117C104.295 26.0232 104.706 27.1934 104.706 28.6297ZM102.478 28.6787C102.478 27.7995 102.286 27.0454 101.902 26.4142C101.451 25.6521 100.806 25.271 99.9702 25.271C99.1091 25.271 98.4488 25.6521 97.9991 26.4142C97.614 27.0454 97.4224 27.8125 97.4224 28.7187C97.4224 29.5988 97.614 30.355 97.9991 30.9841C98.4639 31.7463 99.1122 32.1273 99.952 32.1273C100.774 32.1273 101.418 31.7383 101.884 30.9651C102.279 30.319 102.478 29.5598 102.478 28.6787ZM111.696 25.7851C111.472 25.7451 111.245 25.7253 111.018 25.7261C110.262 25.7261 109.677 26.0082 109.266 26.5763C108.909 27.0764 108.73 27.7085 108.73 28.4716V33.5076H106.58V26.9323C106.582 25.9248 106.561 24.9174 106.518 23.9108H108.39L108.468 25.7471H108.528C108.756 25.116 109.113 24.6069 109.603 24.2258C110.051 23.8928 110.596 23.7125 111.156 23.7117C111.355 23.7117 111.534 23.7257 111.694 23.7507L111.696 25.7851ZM121.309 28.2546C121.315 28.5788 121.288 28.9027 121.231 29.2218H114.782C114.806 30.17 115.119 30.8961 115.718 31.3962C116.261 31.8423 116.964 32.0663 117.827 32.0663C118.782 32.0663 119.653 31.9163 120.436 31.6132L120.773 33.0925C119.857 33.4886 118.776 33.6856 117.529 33.6856C116.029 33.6856 114.852 33.2475 113.995 32.3734C113.14 31.4982 112.711 30.322 112.711 28.8487C112.711 27.4024 113.109 26.1972 113.907 25.236C114.742 24.2098 115.87 23.6967 117.289 23.6967C118.684 23.6967 119.739 24.2098 120.456 25.236C121.024 26.0492 121.309 27.0574 121.309 28.2546ZM119.259 27.7015C119.275 27.0684 119.133 26.5233 118.842 26.0622C118.47 25.4681 117.897 25.172 117.13 25.172C116.427 25.172 115.855 25.461 115.419 26.0412C115.061 26.5023 114.848 27.0564 114.783 27.6995L119.259 27.7015Z"
    fill="white"/>
  <path
    d="M41.1608 15.107V12.974C41.3888 12.944 41.5658 12.884 41.6918 12.794C41.8238 12.704 41.9438 12.521 42.0518 12.245C42.1598 11.969 42.2438 11.576 42.3038 11.066L42.6548 7.997H46.9208V12.875H47.4608V15.107H46.1828V14H42.4388V15.107H41.1608ZM43.5728 11.156C43.4888 11.93 43.2458 12.503 42.8438 12.875H45.6338V9.122H43.8068L43.5728 11.156ZM51.3232 14.108C50.4172 14.108 49.6672 13.817 49.0732 13.235C48.4852 12.647 48.1912 11.903 48.1912 11.003C48.1912 10.103 48.4852 9.362 49.0732 8.78C49.6672 8.192 50.4172 7.898 51.3232 7.898C52.2352 7.898 52.9852 8.189 53.5732 8.771C54.1672 9.353 54.4642 10.097 54.4642 11.003C54.4642 11.909 54.1672 12.653 53.5732 13.235C52.9852 13.817 52.2352 14.108 51.3232 14.108ZM50.0002 12.416C50.3362 12.788 50.7772 12.974 51.3232 12.974C51.8692 12.974 52.3102 12.788 52.6462 12.416C52.9822 12.044 53.1502 11.573 53.1502 11.003C53.1502 10.433 52.9822 9.962 52.6462 9.59C52.3102 9.218 51.8692 9.032 51.3232 9.032C50.7772 9.032 50.3362 9.218 50.0002 9.59C49.6702 9.962 49.5052 10.433 49.5052 11.003C49.5052 11.573 49.6702 12.044 50.0002 12.416ZM58.5381 14.108C57.6261 14.108 56.8641 13.82 56.2521 13.244C55.6461 12.662 55.3431 11.915 55.3431 11.003C55.3431 10.091 55.6461 9.347 56.2521 8.771C56.8641 8.189 57.6261 7.898 58.5381 7.898C59.6601 7.898 60.4971 8.387 61.0491 9.365L59.9511 9.905C59.8191 9.653 59.6241 9.446 59.3661 9.284C59.1141 9.116 58.8381 9.032 58.5381 9.032C57.9921 9.032 57.5421 9.218 57.1881 9.59C56.8341 9.962 56.6571 10.433 56.6571 11.003C56.6571 11.573 56.8341 12.044 57.1881 12.416C57.5421 12.788 57.9921 12.974 58.5381 12.974C58.8381 12.974 59.1141 12.893 59.3661 12.731C59.6241 12.569 59.8191 12.359 59.9511 12.101L61.0491 12.632C60.4791 13.616 59.6421 14.108 58.5381 14.108ZM64.7528 14H63.4658V9.122H61.7108V7.997H66.4988V9.122H64.7528V14ZM68.3981 14.108C68.1281 14.108 67.8671 14.069 67.6151 13.991C67.3691 13.907 67.1771 13.802 67.0391 13.676L67.5251 12.65C67.7891 12.866 68.0471 12.974 68.2991 12.974C68.5151 12.974 68.6831 12.929 68.8031 12.839C68.9291 12.743 69.0521 12.581 69.1721 12.353L66.9581 7.997H68.4071L69.8921 11.183L71.3861 7.997H72.8351L70.3601 12.848C70.1561 13.256 69.9011 13.568 69.5951 13.784C69.2951 14 68.8961 14.108 68.3981 14.108ZM79.0588 14H77.7718V9.122H74.9368V14H73.6588V7.997H79.0588V14ZM85.9119 14H84.6249V11.48H81.7899V14H80.5119V7.997H81.7899V10.355H84.6249V7.997H85.9119V14ZM90.2089 14.108C89.3029 14.108 88.5529 13.817 87.9589 13.235C87.3709 12.647 87.0769 11.903 87.0769 11.003C87.0769 10.103 87.3709 9.362 87.9589 8.78C88.5529 8.192 89.3029 7.898 90.2089 7.898C91.1209 7.898 91.8709 8.189 92.4589 8.771C93.0529 9.353 93.3499 10.097 93.3499 11.003C93.3499 11.909 93.0529 12.653 92.4589 13.235C91.8709 13.817 91.1209 14.108 90.2089 14.108ZM88.8859 12.416C89.2219 12.788 89.6629 12.974 90.2089 12.974C90.7549 12.974 91.1959 12.788 91.5319 12.416C91.8679 12.044 92.0359 11.573 92.0359 11.003C92.0359 10.433 91.8679 9.962 91.5319 9.59C91.1959 9.218 90.7549 9.032 90.2089 9.032C89.6629 9.032 89.2219 9.218 88.8859 9.59C88.5559 9.962 88.3909 10.433 88.3909 11.003C88.3909 11.573 88.5559 12.044 88.8859 12.416ZM100.347 14H97.0894V7.997H100.248C100.794 7.997 101.217 8.147 101.517 8.447C101.823 8.741 101.976 9.101 101.976 9.527C101.976 9.893 101.877 10.199 101.679 10.445C101.481 10.691 101.235 10.844 100.941 10.904C101.265 10.952 101.538 11.117 101.76 11.399C101.982 11.681 102.093 12.008 102.093 12.38C102.093 12.848 101.94 13.235 101.634 13.541C101.328 13.847 100.899 14 100.347 14ZM99.9694 10.4C100.185 10.4 100.356 10.34 100.482 10.22C100.608 10.1 100.671 9.944 100.671 9.752C100.671 9.56 100.605 9.404 100.473 9.284C100.347 9.158 100.179 9.095 99.9694 9.095H98.3674V10.4H99.9694ZM100.014 12.893C100.254 12.893 100.443 12.833 100.581 12.713C100.719 12.587 100.788 12.416 100.788 12.2C100.788 12.002 100.719 11.837 100.581 11.705C100.443 11.567 100.254 11.498 100.014 11.498H98.3674V12.893H100.014Z"
    fill="white"/>
</svg>
