<svg width="7" height="25" viewBox="0 0 7 25" fill="none" xmlns="http://www.w3.org/2000/svg">
  <path
    d="M6 25L5.62842 19.2385L0.824577 22.441L6 25ZM5.58397 0.72265L5.06317 1.50385L5.89523 2.05855L6.41603 1.27735L5.58397 0.72265ZM4.02157 3.06625L3.50078 3.84745L4.33283 4.40215L4.85363 3.62095L4.02157 3.06625ZM3.50078 3.84745C3.32052 4.11783 3.14905 4.39222 2.98636 4.67024L3.84946 5.17529C4.0023 4.91409 4.16342 4.65625 4.33283 4.40215L3.50078 3.84745ZM2.107 6.39861C1.84674 6.99453 1.62336 7.60226 1.43686 8.21844L2.39398 8.50813C2.56915 7.92937 2.77896 7.35856 3.02342 6.79885L2.107 6.39861ZM0.98525 10.1045C0.871683 10.7424 0.795956 11.3856 0.758066 12.0304L1.75634 12.0891C1.79194 11.4832 1.86309 10.879 1.96977 10.2798L0.98525 10.1045ZM0.758066 13.9696C0.795957 14.6144 0.871684 15.2576 0.98525 15.8955L1.96977 15.7202C1.86309 15.121 1.79194 14.5168 1.75634 13.9109L0.758066 13.9696ZM1.43686 17.7816C1.62336 18.3977 1.84674 19.0055 2.107 19.6014L3.02342 19.2012C2.77896 18.6414 2.56915 18.0706 2.39398 17.4919L1.43686 17.7816ZM2.98636 21.3298C3.14905 21.6078 3.32052 21.8822 3.50078 22.1526L4.33283 21.5979C4.16342 21.3437 4.0023 21.0859 3.84946 20.8247L2.98636 21.3298ZM3.50078 22.1526L4.02158 22.9338L4.85363 22.3791L4.33283 21.5979L3.50078 22.1526Z"
    fill="#D4CDC4"/>
</svg>
