<svg width="33" height="34" viewBox="0 0 33 34" fill="none" xmlns="http://www.w3.org/2000/svg">
  <path
    d="M0 33.5L1.49429 27.9232L5.57677 32.0057L0 33.5ZM32.8536 1.35355L32.1149 2.09219L31.4078 1.38508L32.1464 0.646447L32.8536 1.35355ZM30.6376 3.56946L29.1604 5.04674L28.4533 4.33963L29.9305 2.86236L30.6376 3.56946ZM27.6831 6.52401L26.2058 8.00128L25.4987 7.29417L26.976 5.8169L27.6831 6.52401ZM24.7286 9.47855L23.2513 10.9558L22.5442 10.2487L24.0214 8.77145L24.7286 9.47855ZM21.774 12.4331L20.2967 13.9104L19.5896 13.2033L21.0669 11.726L21.774 12.4331ZM18.8195 15.3876L17.3422 16.8649L16.6351 16.1578L18.1124 14.6805L18.8195 15.3876ZM15.8649 18.3422L14.3876 19.8195L13.6805 19.1124L15.1578 17.6351L15.8649 18.3422ZM12.9104 21.2967L11.4331 22.774L10.726 22.0669L12.2033 20.5896L12.9104 21.2967ZM9.95582 24.2513L8.47855 25.7286L7.77144 25.0215L9.24872 23.5442L9.95582 24.2513ZM7.00128 27.2058L5.524 28.6831L4.81689 27.976L6.29417 26.4987L7.00128 27.2058ZM4.04673 30.1604L2.56945 31.6377L1.86235 30.9305L3.33962 29.4533L4.04673 30.1604Z"
    fill="#D4CDC4"/>
</svg>
