<svg width="161" height="22" viewBox="0 0 161 22" fill="none" xmlns="http://www.w3.org/2000/svg">
  <path
    d="M161 1.64667L155.274 0.90431L157.494 6.23398L161 1.64667ZM0.806158 2.10756C1.12231 2.24053 1.43777 2.37282 1.75253 2.50445L2.13832 1.58186C1.82419 1.4505 1.50937 1.31847 1.19384 1.18577L0.806158 2.10756ZM3.63287 3.28611C4.25693 3.54397 4.87828 3.79915 5.49698 4.05164L5.87482 3.12577C5.25749 2.87384 4.6375 2.61922 4.01477 2.3619L3.63287 3.28611ZM7.37035 4.81116C8.00368 5.06623 8.63425 5.31843 9.26211 5.56776L9.63119 4.63835C9.00485 4.38963 8.37578 4.13804 7.74393 3.88357L7.37035 4.81116ZM11.1377 6.30714C11.7689 6.55412 12.3974 6.79816 13.0232 7.03924L13.3827 6.10608C12.7585 5.86564 12.1317 5.62225 11.5021 5.3759L11.1377 6.30714ZM14.9256 7.76604C15.557 8.00526 16.1858 8.24142 16.8119 8.47453L17.1608 7.53736C16.5365 7.30493 15.9095 7.06945 15.2798 6.8309L14.9256 7.76604ZM18.7141 9.17615C19.3542 9.41003 19.9915 9.64066 20.6263 9.86805L20.9635 8.92663C20.3308 8.69997 19.6954 8.47006 19.0573 8.23689L18.7141 9.17615ZM22.5229 10.5405C23.1663 10.7662 23.8072 10.9886 24.4455 11.2076L24.77 10.2617C24.1339 10.0435 23.4953 9.82186 22.8539 9.59686L22.5229 10.5405ZM26.3669 11.8591C27.0051 12.0729 27.6409 12.2833 28.2742 12.4903L28.5848 11.5397C27.9539 11.3335 27.3205 11.1239 26.6845 10.9109L26.3669 11.8591ZM30.2191 13.1174C30.8649 13.3228 31.5083 13.5246 32.1492 13.7227L32.4445 12.7673C31.8062 12.57 31.1655 12.369 30.5222 12.1644L30.2191 13.1174ZM34.0838 14.3118C34.737 14.5077 35.3877 14.6997 36.0361 14.8879L36.3149 13.9275C35.6693 13.7401 35.0214 13.549 34.371 13.3539L34.0838 14.3118ZM37.9746 15.4409C38.6311 15.625 39.2854 15.8051 39.9374 15.9811L40.1981 15.0157C39.5492 14.8405 38.898 14.6613 38.2445 14.478L37.9746 15.4409ZM41.8969 16.5C42.552 16.6699 43.2049 16.8358 43.8558 16.9976L44.097 16.0272C43.4495 15.8662 42.7999 15.7012 42.1481 15.532L41.8969 16.5ZM45.8344 17.4784C46.492 17.6344 47.1475 17.7862 47.8011 17.9338L48.0213 16.9583C47.3713 16.8116 46.7193 16.6606 46.0653 16.5054L45.8344 17.4784ZM49.789 18.3708C50.4523 18.5127 51.1137 18.6501 51.7734 18.7831L51.9711 17.8029C51.3153 17.6706 50.6577 17.534 49.9982 17.3929L49.789 18.3708ZM53.7618 19.1718C54.4301 19.2982 55.0966 19.42 55.7616 19.5373L55.9353 18.5525C55.2744 18.436 54.6119 18.3149 53.9477 18.1892L53.7618 19.1718ZM57.7532 19.8757C58.4255 19.9855 59.0963 20.0906 59.7657 20.191L59.914 19.202C59.2489 19.1023 58.5824 18.9979 57.9144 18.8887L57.7532 19.8757ZM61.7702 20.478C62.4431 20.5698 63.1146 20.6567 63.7851 20.7389L63.9067 19.7463C63.2408 19.6647 62.5737 19.5783 61.9054 19.4872L61.7702 20.478ZM65.8008 20.9718C66.4743 21.0449 67.1467 21.1131 67.8183 21.1764L67.9122 20.1808C67.2453 20.1179 66.5775 20.0502 65.9087 19.9776L65.8008 20.9718ZM69.8422 21.3527C70.5166 21.4066 71.1903 21.4555 71.8634 21.4995L71.9286 20.5016C71.2603 20.4579 70.5914 20.4094 69.9219 20.3559L69.8422 21.3527ZM73.8923 21.6172C74.5681 21.6515 75.2435 21.6807 75.9186 21.705L75.9545 20.7056C75.2843 20.6815 74.6138 20.6525 73.9429 20.6185L73.8923 21.6172ZM77.9483 21.7629C78.6249 21.7772 79.3014 21.7864 79.9779 21.7906L79.9842 20.7907C79.3127 20.7865 78.6411 20.7773 77.9694 20.7631L77.9483 21.7629ZM82.0072 21.7883C82.6836 21.7825 83.3601 21.7716 84.037 21.7557L84.0135 20.756C83.3417 20.7718 82.6701 20.7825 81.9986 20.7883L82.0072 21.7883ZM86.066 21.6932C86.741 21.6674 87.4165 21.6366 88.0925 21.6008L88.0396 20.6022C87.3685 20.6377 86.6979 20.6683 86.0278 20.6939L86.066 21.6932ZM90.1215 21.4786C90.7941 21.4331 91.4675 21.3828 92.1416 21.3275L92.0599 20.3309C91.3905 20.3858 90.722 20.4357 90.0541 20.4809L90.1215 21.4786ZM94.1666 21.147C94.8373 21.0824 95.5089 21.0129 96.1816 20.9387L96.0719 19.9447C95.4038 20.0185 94.7368 20.0874 94.0707 20.1516L94.1666 21.147ZM98.1986 20.7019C98.868 20.6186 99.5386 20.5306 100.211 20.4379L100.074 19.4473C99.4062 19.5394 98.7401 19.6268 98.0752 19.7095L98.1986 20.7019ZM102.216 20.1475C102.885 20.0462 103.555 19.9402 104.227 19.8296L104.064 18.8429C103.397 18.9528 102.731 19.0581 102.067 19.1588L102.216 20.1475ZM106.219 19.4886C106.884 19.3704 107.551 19.2477 108.221 19.1204L108.034 18.138C107.369 18.2645 106.705 18.3865 106.044 18.504L106.219 19.4886ZM110.205 18.7305C110.865 18.5968 111.527 18.4587 112.191 18.3162L111.982 17.3384C111.321 17.4801 110.663 17.6175 110.007 17.7504L110.205 18.7305ZM114.176 17.8787C114.83 17.7306 115.486 17.5784 116.144 17.4219L115.913 16.449C115.258 16.6046 114.606 16.7561 113.955 16.9033L114.176 17.8787ZM118.125 16.94C118.775 16.7784 119.427 16.6127 120.08 16.4431L119.829 15.4751C119.179 15.644 118.53 15.8088 117.884 15.9696L118.125 16.94ZM122.042 15.9237C122.693 15.7481 123.346 15.5685 124.002 15.3849L123.732 14.422C123.079 14.6047 122.429 14.7834 121.782 14.9583L122.042 15.9237ZM125.942 14.832C126.592 14.6439 127.243 14.452 127.897 14.2563L127.611 13.2983C126.959 13.4932 126.31 13.6842 125.664 13.8715L125.942 14.832ZM129.829 13.6696C130.47 13.4718 131.114 13.2703 131.761 13.0653L131.459 12.1121C130.815 12.3163 130.173 12.517 129.534 12.714L129.829 13.6696ZM133.705 12.4407C134.338 12.2343 134.974 12.0246 135.613 11.8114L135.297 10.8629C134.66 11.0753 134.026 11.2843 133.395 11.4898L133.705 12.4407ZM137.537 11.1617C138.175 10.9439 138.815 10.7227 139.458 10.4982L139.128 9.55412C138.487 9.77791 137.849 9.99834 137.214 10.2154L137.537 11.1617ZM141.357 9.82814C141.992 9.60157 142.63 9.37178 143.271 9.13879L142.93 8.19896C142.291 8.43126 141.654 8.66034 141.021 8.8862L141.357 9.82814ZM145.172 8.44125C145.799 8.20913 146.429 7.97398 147.061 7.73582L146.708 6.80002C146.078 7.03753 145.45 7.27202 144.825 7.50347L145.172 8.44125ZM148.966 7.01225C149.592 6.7726 150.22 6.53004 150.851 6.28457L150.489 5.35259C149.859 5.59744 149.232 5.83937 148.608 6.07839L148.966 7.01225ZM152.729 5.54887C153.357 5.3008 153.989 5.04989 154.623 4.79613L154.251 3.86771C153.619 4.12089 152.989 4.37121 152.362 4.61869L152.729 5.54887ZM156.497 4.04119C157.116 3.79009 157.738 3.53633 158.363 3.27991L157.983 2.35481C157.36 2.61069 156.739 2.86391 156.121 3.11446L156.497 4.04119Z"
    fill="#A39B8F"/>
</svg>
