<svg width="34" height="34" viewBox="0 0 34 34" fill="none" xmlns="http://www.w3.org/2000/svg">
  <path
    d="M33.5 33.5L32.0057 27.9232L27.9232 32.0057L33.5 33.5ZM0.646447 1.35355L1.38508 2.09219L2.09219 1.38508L1.35355 0.646447L0.646447 1.35355ZM2.86236 3.56946L4.33963 5.04674L5.04674 4.33963L3.56946 2.86236L2.86236 3.56946ZM5.8169 6.52401L7.29417 8.00128L8.00128 7.29417L6.52401 5.8169L5.8169 6.52401ZM8.77145 9.47855L10.2487 10.9558L10.9558 10.2487L9.47855 8.77145L8.77145 9.47855ZM11.726 12.4331L13.2033 13.9104L13.9104 13.2033L12.4331 11.726L11.726 12.4331ZM14.6805 15.3876L16.1578 16.8649L16.8649 16.1578L15.3876 14.6805L14.6805 15.3876ZM17.6351 18.3422L19.1124 19.8195L19.8195 19.1124L18.3422 17.6351L17.6351 18.3422ZM20.5896 21.2967L22.0669 22.774L22.774 22.0669L21.2967 20.5896L20.5896 21.2967ZM23.5442 24.2513L25.0215 25.7286L25.7286 25.0215L24.2513 23.5442L23.5442 24.2513ZM26.4987 27.2058L27.976 28.6831L28.6831 27.976L27.2058 26.4987L26.4987 27.2058ZM29.4533 30.1604L30.9305 31.6377L31.6377 30.9305L30.1604 29.4533L29.4533 30.1604Z"
    fill="#D4CDC4"/>
</svg>
