<svg width="50" height="46" viewBox="0 0 50 46" fill="none" xmlns="http://www.w3.org/2000/svg">
  <path d="M30.6864 43.5366L17.8906 7.04408L16.3571 7.5818L29.1529 44.0743L30.6864 43.5366Z" fill="#2D415A"/>
  <path d="M17.8918 7.04401L16.3583 7.58188L18.9252 14.9019L18.976 14.8816C19.4867 14.678 19.9962 14.5446 20.4937 14.464L17.8918 7.04401Z" fill="#1B2736"/>
  <path
    d="M37.9316 44.3673C37.7318 44.2404 33.0055 41.2596 29.9867 41.2596C26.9695 41.2596 22.1598 44.239 21.9565 44.3659C21.8407 44.4383 21.7867 44.5785 21.8243 44.7098C21.862 44.841 21.982 44.9315 22.1185 44.9315H37.7676C37.9037 44.9315 38.0233 44.8416 38.0613 44.711C38.0993 44.5803 38.0465 44.4403 37.9316 44.3673Z"
    fill="#FFD161"/>
  <path
    d="M7.88055 45.0748C7.63055 45.0748 7.37755 45.0089 7.14805 44.8704C6.47593 44.465 6.25968 43.5917 6.66505 42.9195L11.1733 35.4447C11.5787 34.7725 12.4522 34.5564 13.124 34.9617C13.7962 35.367 14.0124 36.2404 13.607 36.9125L9.0988 44.3874C8.83193 44.8298 8.36218 45.0748 7.88055 45.0748Z"
    fill="#8A532D"/>
  <path d="M9.27505 38.5922H12.5941L13.6071 36.9125C13.8267 36.5485 13.8624 36.1258 13.7436 35.7499H10.9893L9.27505 38.5922Z" fill="#6E4224"/>
  <path
    d="M40.5193 45.0748C40.0377 45.0748 39.568 44.8299 39.3012 44.3874L34.7928 36.9125C34.3875 36.2404 34.6037 35.3671 35.2758 34.9616C35.9476 34.5566 36.8212 34.7725 37.2266 35.4446L41.7348 42.9195C42.1402 43.5916 41.924 44.4649 41.2518 44.8704C41.0223 45.0088 40.7692 45.0748 40.5193 45.0748Z"
    fill="#8A532D"/>
  <path
    d="M37.2264 35.4446C37.0749 35.1934 36.8579 35.006 36.6106 34.8909L35.918 35.7499H34.6563C34.5374 36.1256 34.5731 36.5484 34.7928 36.9125L35.8058 38.5921H36.5976C37.0274 38.5921 37.434 38.3976 37.7039 38.063L38.3343 37.2814L37.2264 35.4446Z"
    fill="#6E4224"/>
  <path
    d="M36.5976 37.5565H9.25389C8.46901 37.5565 7.83276 36.9664 7.83276 36.1815C7.83276 35.3966 8.46901 34.8065 9.25389 34.8065H35.918L46.7621 21.3404C47.2548 20.7295 48.1495 20.6244 48.7604 21.117C49.3714 21.6096 49.4673 22.4998 48.9746 23.1106L37.7039 37.0575C37.434 37.3921 37.0274 37.5565 36.5976 37.5565Z"
    fill="#8A532D"/>
  <path
    d="M35.1773 33.4145V32.3049C35.1773 31.5195 34.5406 30.8828 33.7552 30.8828H10.2841C9.49872 30.8828 8.86197 31.5195 8.86197 32.3049V33.4145C8.86197 33.4754 8.86709 33.5349 8.87447 33.5938H35.1648C35.1723 33.5349 35.1773 33.4754 35.1773 33.4145Z"
    fill="#E3E3E3"/>
  <path d="M8.87439 33.5938C8.96264 34.2944 9.55939 34.8366 10.284 34.8366H33.7551C34.4798 34.8366 35.0765 34.2944 35.1648 33.5938H8.87439Z" fill="#A6A6A6"/>
  <path d="M45.5217 19.0011C44.9128 18.505 44.0169 18.5965 43.5209 19.2054L34.9089 29.7759C34.4128 30.3848 34.5043 31.2806 35.1132 31.7766L35.9734 32.4775C35.9909 32.4918 36.0093 32.5038 36.0273 32.517L46.3288 19.6588L45.5217 19.0011Z" fill="#E3E3E3"/>
  <path d="M46.382 19.7021L46.3288 19.6588L36.0274 32.5173C36.6343 32.9665 37.4925 32.8649 37.9744 32.2735L46.5864 21.703C47.0824 21.094 46.9909 20.1981 46.382 19.7021Z" fill="#A6A6A6"/>
  <path
    d="M14.5123 1.56701C9.12842 3.71438 5.06017 7.94801 2.74742 13.8098C1.01329 18.205 0.871416 21.9261 0.866416 22.0823C0.851666 22.5259 1.17904 22.9073 1.61992 22.9596C1.65417 22.9638 1.68817 22.9658 1.72179 22.9658C2.12204 22.9658 2.47554 22.6849 2.55817 22.2839C2.58654 22.1528 3.31392 18.9689 6.95429 17.5165C10.4914 16.1061 12.7647 18.0111 12.8598 18.093C13.0354 18.2443 13.2618 18.3146 13.4858 18.2966C10.3753 6.91788 14.5123 1.56701 14.5123 1.56701Z"
    fill="#FF6650"/>
  <path
    d="M38.4407 7.09401C38.3293 6.98401 35.6659 4.38301 31.3951 2.38364C25.6977 -0.283989 19.8601 -0.566739 14.5123 1.56701C21.1168 1.41089 24.9214 8.19139 26.7717 12.9368C26.8928 12.8034 26.9756 12.6361 26.9942 12.456C27.0071 12.3316 27.3486 9.39014 30.8846 7.97976C34.5256 6.52739 37.2404 8.33189 37.3541 8.40926C37.5892 8.56952 37.8904 8.60414 38.1551 8.49776C38.4228 8.39064 38.6202 8.15514 38.6769 7.87239C38.7341 7.58951 38.6461 7.29639 38.4407 7.09401Z"
    fill="#FF6650"/>
  <path
    d="M14.5123 1.56702C14.5123 1.56702 10.3752 6.91789 13.4858 18.2965C13.569 18.2899 13.6518 18.2719 13.7316 18.2401C13.9617 18.1494 14.1625 17.9549 14.2448 17.7216C14.2966 17.5755 15.5506 14.123 18.8844 12.7931L18.9761 12.7566C22.3083 11.4275 25.5961 13.0681 25.7342 13.1388C25.9527 13.2501 26.2082 13.2626 26.4364 13.1721C26.5651 13.1214 26.6793 13.0386 26.7717 12.9368C24.9216 8.19139 21.1169 1.41089 14.5123 1.56702Z"
    fill="#FFD161"/>
</svg>
