<svg width="144" height="44" viewBox="0 0 144 44" fill="none" xmlns="http://www.w3.org/2000/svg">
  <path d="M138.667 43.986H5.33333C2.34667 43.986 0 41.5668 0 38.4878V5.49825C0 2.41923 2.34667 0 5.33333 0H138.667C141.653 0 144 2.41923 144 5.49825V38.4878C144 41.5668 141.653 43.986 138.667 43.986Z" fill="#171A1C"/>
  <path
    d="M39.16 15.107V12.974C39.388 12.944 39.565 12.884 39.691 12.794C39.823 12.704 39.943 12.521 40.051 12.245C40.159 11.969 40.243 11.576 40.303 11.066L40.654 7.997H44.92V12.875H45.46V15.107H44.182V14H40.438V15.107H39.16ZM41.572 11.156C41.488 11.93 41.245 12.503 40.843 12.875H43.633V9.122H41.806L41.572 11.156ZM49.3225 14.108C48.4165 14.108 47.6665 13.817 47.0725 13.235C46.4845 12.647 46.1905 11.903 46.1905 11.003C46.1905 10.103 46.4845 9.362 47.0725 8.78C47.6665 8.192 48.4165 7.898 49.3225 7.898C50.2345 7.898 50.9845 8.189 51.5725 8.771C52.1665 9.353 52.4635 10.097 52.4635 11.003C52.4635 11.909 52.1665 12.653 51.5725 13.235C50.9845 13.817 50.2345 14.108 49.3225 14.108ZM47.9995 12.416C48.3355 12.788 48.7765 12.974 49.3225 12.974C49.8685 12.974 50.3095 12.788 50.6455 12.416C50.9815 12.044 51.1495 11.573 51.1495 11.003C51.1495 10.433 50.9815 9.962 50.6455 9.59C50.3095 9.218 49.8685 9.032 49.3225 9.032C48.7765 9.032 48.3355 9.218 47.9995 9.59C47.6695 9.962 47.5045 10.433 47.5045 11.003C47.5045 11.573 47.6695 12.044 47.9995 12.416ZM56.5373 14.108C55.6253 14.108 54.8633 13.82 54.2513 13.244C53.6453 12.662 53.3423 11.915 53.3423 11.003C53.3423 10.091 53.6453 9.347 54.2513 8.771C54.8633 8.189 55.6253 7.898 56.5373 7.898C57.6593 7.898 58.4963 8.387 59.0483 9.365L57.9503 9.905C57.8183 9.653 57.6233 9.446 57.3653 9.284C57.1133 9.116 56.8373 9.032 56.5373 9.032C55.9913 9.032 55.5413 9.218 55.1873 9.59C54.8333 9.962 54.6563 10.433 54.6563 11.003C54.6563 11.573 54.8333 12.044 55.1873 12.416C55.5413 12.788 55.9913 12.974 56.5373 12.974C56.8373 12.974 57.1133 12.893 57.3653 12.731C57.6233 12.569 57.8183 12.359 57.9503 12.101L59.0483 12.632C58.4783 13.616 57.6413 14.108 56.5373 14.108ZM62.752 14H61.465V9.122H59.71V7.997H64.498V9.122H62.752V14ZM66.3973 14.108C66.1273 14.108 65.8663 14.069 65.6143 13.991C65.3683 13.907 65.1763 13.802 65.0383 13.676L65.5243 12.65C65.7883 12.866 66.0463 12.974 66.2983 12.974C66.5143 12.974 66.6823 12.929 66.8023 12.839C66.9283 12.743 67.0513 12.581 67.1713 12.353L64.9573 7.997H66.4063L67.8913 11.183L69.3853 7.997H70.8343L68.3593 12.848C68.1553 13.256 67.9003 13.568 67.5943 13.784C67.2943 14 66.8953 14.108 66.3973 14.108ZM77.0581 14H75.7711V9.122H72.9361V14H71.6581V7.997H77.0581V14ZM83.9111 14H82.6241V11.48H79.7891V14H78.5111V7.997H79.7891V10.355H82.6241V7.997H83.9111V14ZM88.2081 14.108C87.3021 14.108 86.5521 13.817 85.9581 13.235C85.3701 12.647 85.0761 11.903 85.0761 11.003C85.0761 10.103 85.3701 9.362 85.9581 8.78C86.5521 8.192 87.3021 7.898 88.2081 7.898C89.1201 7.898 89.8701 8.189 90.4581 8.771C91.0521 9.353 91.3491 10.097 91.3491 11.003C91.3491 11.909 91.0521 12.653 90.4581 13.235C89.8701 13.817 89.1201 14.108 88.2081 14.108ZM86.8851 12.416C87.2211 12.788 87.6621 12.974 88.2081 12.974C88.7541 12.974 89.1951 12.788 89.5311 12.416C89.8671 12.044 90.0351 11.573 90.0351 11.003C90.0351 10.433 89.8671 9.962 89.5311 9.59C89.1951 9.218 88.7541 9.032 88.2081 9.032C87.6621 9.032 87.2211 9.218 86.8851 9.59C86.5551 9.962 86.3901 10.433 86.3901 11.003C86.3901 11.573 86.5551 12.044 86.8851 12.416ZM98.3467 14H95.0887V7.997H98.2477C98.7937 7.997 99.2167 8.147 99.5167 8.447C99.8227 8.741 99.9757 9.101 99.9757 9.527C99.9757 9.893 99.8767 10.199 99.6787 10.445C99.4807 10.691 99.2347 10.844 98.9407 10.904C99.2647 10.952 99.5377 11.117 99.7597 11.399C99.9817 11.681 100.093 12.008 100.093 12.38C100.093 12.848 99.9397 13.235 99.6337 13.541C99.3277 13.847 98.8987 14 98.3467 14ZM97.9687 10.4C98.1847 10.4 98.3557 10.34 98.4817 10.22C98.6077 10.1 98.6707 9.944 98.6707 9.752C98.6707 9.56 98.6047 9.404 98.4727 9.284C98.3467 9.158 98.1787 9.095 97.9687 9.095H96.3667V10.4H97.9687ZM98.0137 12.893C98.2537 12.893 98.4427 12.833 98.5807 12.713C98.7187 12.587 98.7877 12.416 98.7877 12.2C98.7877 12.002 98.7187 11.837 98.5807 11.705C98.4427 11.567 98.2537 11.498 98.0137 11.498H96.3667V12.893H98.0137Z"
    fill="white"/>
  <path
    d="M66.126 24.6984C63.7082 24.6984 61.7942 26.4977 61.7942 28.9968C61.7942 31.396 63.7082 33.2953 66.126 33.2953C68.5438 33.2953 70.4579 31.496 70.4579 28.9968C70.4579 26.3978 68.5438 24.6984 66.126 24.6984ZM66.126 31.496C64.8164 31.496 63.7082 30.3964 63.7082 28.8969C63.7082 27.3974 64.8164 26.2978 66.126 26.2978C67.4356 26.2978 68.5438 27.2974 68.5438 28.8969C68.5438 30.3964 67.4356 31.496 66.126 31.496ZM56.7571 24.6984C54.3393 24.6984 52.4253 26.4977 52.4253 28.9968C52.4253 31.396 54.3393 33.2953 56.7571 33.2953C59.1749 33.2953 61.089 31.496 61.089 28.9968C61.089 26.3978 59.1749 24.6984 56.7571 24.6984ZM56.7571 31.496C55.4475 31.496 54.3394 30.3964 54.3394 28.8969C54.3394 27.3974 55.4475 26.2978 56.7571 26.2978C58.0668 26.2978 59.1749 27.2974 59.1749 28.8969C59.1749 30.3964 58.0668 31.496 56.7571 31.496ZM45.5749 25.9979V27.7973H49.9068C49.806 28.7969 49.4031 29.5966 48.8994 30.0965C48.2949 30.6962 47.2875 31.396 45.5749 31.396C42.8549 31.396 40.8401 29.2967 40.8401 26.5977C40.8401 23.8986 42.9557 21.7994 45.5749 21.7994C46.9853 21.7994 48.0934 22.3992 48.8994 23.0989L50.209 21.7994C49.1008 20.7997 47.6905 20 45.6757 20C42.049 20 38.926 22.9989 38.926 26.5977C38.926 30.1964 42.049 33.1954 45.6757 33.1954C47.6905 33.1954 49.1008 32.5956 50.3097 31.296C51.5186 30.0965 51.9216 28.3971 51.9216 27.0975C51.9216 26.6976 51.9216 26.2978 51.8208 25.9979H45.5749ZM91.3112 27.3974C90.9082 26.3978 89.9008 24.6984 87.6845 24.6984C85.4682 24.6984 83.6549 26.3978 83.6549 28.9968C83.6549 31.396 85.4682 33.2953 87.886 33.2953C89.8001 33.2953 91.0089 32.0958 91.4119 31.396L90.0015 30.3964C89.4978 31.0961 88.8934 31.5959 87.886 31.5959C86.8786 31.5959 86.2741 31.1961 85.7704 30.2964L91.5127 27.8972L91.3112 27.3974ZM85.4682 28.7969C85.4682 27.1975 86.7778 26.2978 87.6845 26.2978C88.3897 26.2978 89.0949 26.6976 89.2964 27.1975L85.4682 28.7969ZM80.7334 32.8955H82.6475V20.3999H80.7334V32.8955ZM77.7112 25.598C77.2075 25.0982 76.4016 24.5984 75.3942 24.5984C73.2786 24.5984 71.2638 26.4977 71.2638 28.8969C71.2638 31.296 73.1779 33.0954 75.3942 33.0954C76.4016 33.0954 77.2075 32.5956 77.6104 32.0958H77.7112V32.6955C77.7112 34.295 76.8045 35.1947 75.3942 35.1947C74.286 35.1947 73.4801 34.3949 73.2786 33.6952L71.6667 34.3949C72.1704 35.4946 73.3793 36.8941 75.4949 36.8941C77.7112 36.8941 79.5245 35.5945 79.5245 32.4956V24.8983H77.7112V25.598ZM75.4949 31.496C74.1853 31.496 73.0771 30.3964 73.0771 28.8969C73.0771 27.3974 74.1853 26.2978 75.4949 26.2978C76.8045 26.2978 77.8119 27.3974 77.8119 28.8969C77.8119 30.3964 76.8045 31.496 75.4949 31.496ZM100.076 20.3999H95.5423V32.8955H97.4564V28.1971H100.076C102.191 28.1971 104.206 26.6976 104.206 24.2985C104.206 21.8993 102.191 20.3999 100.076 20.3999ZM100.176 26.3978H97.4564V22.0993H100.176C101.587 22.0993 102.393 23.2988 102.393 24.1985C102.292 25.2981 101.486 26.3978 100.176 26.3978ZM111.762 24.5984C110.351 24.5984 108.941 25.1982 108.437 26.4977L110.15 27.1975C110.553 26.4977 111.157 26.2978 111.862 26.2978C112.87 26.2978 113.776 26.8976 113.877 27.8972V27.9972C113.575 27.7973 112.769 27.4974 111.963 27.4974C110.15 27.4974 108.336 28.497 108.336 30.2964C108.336 31.9958 109.847 33.0954 111.459 33.0954C112.769 33.0954 113.373 32.4956 113.877 31.8958H113.978V32.8955H115.791V28.0972C115.59 25.8979 113.877 24.5984 111.762 24.5984ZM111.56 31.496C110.956 31.496 110.049 31.1961 110.049 30.3964C110.049 29.3967 111.157 29.0968 112.064 29.0968C112.87 29.0968 113.273 29.2967 113.776 29.4967C113.575 30.6962 112.567 31.496 111.56 31.496ZM122.138 24.8983L120.022 30.2964H119.922L117.705 24.8983H115.69L119.015 32.4956L117.101 36.6941H119.015L124.153 24.8983H122.138ZM105.213 32.8955H107.127V20.3999H105.213V32.8955Z"
    fill="white"/>
  <path d="M8.40296 9.35278C8.10074 9.65268 8 10.1525 8 10.7523V32.8445C8 33.4443 8.20148 33.9442 8.5037 34.2441L8.60444 34.344L21.0963 21.9484V21.7484L8.40296 9.35278Z" fill="url(#paint0_linear)"/>
  <path d="M25.126 26.1469L20.9956 22.0484V21.7485L25.126 17.6499L25.2267 17.7499L30.163 20.5489C31.5734 21.3486 31.5734 22.6481 30.163 23.4479L25.126 26.1469Z" fill="url(#paint1_linear)"/>
  <path d="M25.2265 26.0469L20.9954 21.8484L8.40283 34.344C8.90654 34.8439 9.61172 34.8438 10.5184 34.444L25.2265 26.0469Z" fill="url(#paint2_linear)"/>
  <path d="M25.2265 17.6499L10.5184 9.35278C9.61172 8.85296 8.90654 8.95292 8.40283 9.45275L20.9954 21.8484L25.2265 17.6499Z" fill="url(#paint3_linear)"/>
  <path opacity="0.2" d="M25.1258 25.9468L10.5184 34.1439C9.71246 34.6437 9.00728 34.5438 8.50357 34.1439L8.40283 34.2439L8.50357 34.3438C9.00728 34.7437 9.71246 34.8437 10.5184 34.3438L25.1258 25.9468Z" fill="black"/>
  <path
    opacity="0.2"
    d="M8.40296 34.1441C8.10074 33.8442 8 33.3444 8 32.7446V32.8445C8 33.4443 8.20148 33.9442 8.5037 34.2441V34.1441H8.40296ZM30.163 23.1479L25.1259 25.947L25.2267 26.0469L30.163 23.2479C30.8681 22.848 31.1704 22.3482 31.1704 21.8484C31.1704 22.3482 30.7674 22.7481 30.163 23.1479Z"
    fill="black"/>
  <path
    opacity="0.2"
    d="M10.5185 9.45265L30.163 20.5488C30.7674 20.9486 31.1704 21.3485 31.1704 21.8483C31.1704 21.3485 30.8681 20.8487 30.163 20.4488L10.5185 9.35269C9.10815 8.55297 8 9.15276 8 10.7522V10.8522C8 9.35269 9.10815 8.65293 10.5185 9.45265Z"
    fill="white"/>
  <defs>
    <linearGradient id="paint0_linear" x1="19.8874" y1="10.5624" x2="3.11078" y2="27.4682" gradientUnits="userSpaceOnUse">
      <stop stop-color="#00A0FF"/>
      <stop offset="0.007" stop-color="#00A1FF"/>
      <stop offset="0.26" stop-color="#00BEFF"/>
      <stop offset="0.512" stop-color="#00D2FF"/>
      <stop offset="0.76" stop-color="#00DFFF"/>
      <stop offset="1" stop-color="#00E3FF"/>
    </linearGradient>
    <linearGradient id="paint1_linear" x1="32.0106" y1="21.8494" x2="7.63439" y2="21.8494" gradientUnits="userSpaceOnUse">
      <stop stop-color="#FFE000"/>
      <stop offset="0.409" stop-color="#FFBD00"/>
      <stop offset="0.775" stop-color="#FFA500"/>
      <stop offset="1" stop-color="#FF9C00"/>
    </linearGradient>
    <linearGradient id="paint2_linear" x1="22.9367" y1="24.1436" x2="0.187326" y2="47.0695" gradientUnits="userSpaceOnUse">
      <stop stop-color="#FF3A44"/>
      <stop offset="1" stop-color="#C31162"/>
    </linearGradient>
    <linearGradient id="paint3_linear" x1="5.27685" y1="2.03134" x2="15.436" y2="12.2693" gradientUnits="userSpaceOnUse">
      <stop stop-color="#32A071"/>
      <stop offset="0.069" stop-color="#2DA771"/>
      <stop offset="0.476" stop-color="#15CF74"/>
      <stop offset="0.801" stop-color="#06E775"/>
      <stop offset="1" stop-color="#00F076"/>
    </linearGradient>
  </defs>
</svg>
