<svg width="37" height="62" viewBox="0 0 37 62" fill="none" xmlns="http://www.w3.org/2000/svg">
  <path d="M24.9375 42.6521H27.2375C28.6544 42.6521 29.803 41.5035 29.803 40.0866V36.9285C29.803 35.5116 28.6544 34.363 27.2375 34.363H24.9375" stroke="#2D415A" stroke-width="14" stroke-miterlimit="10"/>
  <path
    d="M7.74424 58.4601H6.28674C5.97612 58.4601 5.72424 58.2083 5.72424 57.8976V57.7673C5.72424 57.4566 5.97612 57.2048 6.28674 57.2048H7.74424C8.05487 57.2048 8.30674 57.4566 8.30674 57.7673V57.8976C8.30674 58.2084 8.05487 58.4601 7.74424 58.4601Z"
    fill="#2D415A"/>
  <path d="M7.24719 58.216H6.78394V60.3433H7.24719V58.216Z" fill="#2D415A"/>
  <path d="M7.01546 61.25C7.67026 61.25 8.20108 60.7192 8.20108 60.0644C8.20108 59.4096 7.67026 58.8788 7.01546 58.8788C6.36065 58.8788 5.82983 59.4096 5.82983 60.0644C5.82983 60.7192 6.36065 61.25 7.01546 61.25Z" fill="#2D415A"/>
  <path
    d="M19.1825 58.4601H17.725C17.4144 58.4601 17.1625 58.2083 17.1625 57.8976V57.7673C17.1625 57.4566 17.4144 57.2048 17.725 57.2048H19.1825C19.4931 57.2048 19.745 57.4566 19.745 57.7673V57.8976C19.745 58.2084 19.4932 58.4601 19.1825 58.4601Z"
    fill="#2D415A"/>
  <path d="M18.6853 58.216H18.222V60.3433H18.6853V58.216Z" fill="#2D415A"/>
  <path d="M18.4537 61.25C19.1085 61.25 19.6393 60.7192 19.6393 60.0644C19.6393 59.4096 19.1085 58.8788 18.4537 58.8788C17.7989 58.8788 17.2681 59.4096 17.2681 60.0644C17.2681 60.7192 17.7989 61.25 18.4537 61.25Z" fill="#2D415A"/>
  <path
    d="M21.6716 52.6572H4.1604C2.35678 52.6572 0.894653 51.1951 0.894653 49.3915V19.8119C0.894653 18.0083 2.35678 16.5461 4.1604 16.5461H21.6718C23.4754 16.5461 24.9375 18.0083 24.9375 19.8119V49.3915C24.9375 51.1951 23.4754 52.6572 21.6716 52.6572Z"
    fill="#FF8B7A"/>
  <path
    d="M0.197144 53.3699V23.6453C0.197144 21.4965 1.93914 19.7545 4.08789 19.7545H21.7441C23.8929 19.7545 25.6349 21.4965 25.6349 23.6453V53.3698C25.6349 55.5186 23.8929 57.2606 21.744 57.2606H4.08789C1.93914 57.2606 0.197144 55.5186 0.197144 53.3699Z"
    fill="#2D415A"/>
  <path
    d="M21.6716 56.5631H4.1604C2.35678 56.5631 0.894653 55.101 0.894653 53.2974V23.7178C0.894653 21.9141 2.35678 20.452 4.1604 20.452H21.6718C23.4754 20.452 24.9375 21.9141 24.9375 23.7178V53.2974C24.9375 55.1009 23.4754 56.5631 21.6716 56.5631Z"
    fill="#FF6650"/>
  <path
    d="M6.3093 54.4825H6.06542C5.48455 54.4825 5.01367 54.0116 5.01367 53.4307V31.2643C5.01367 30.6834 5.48455 30.2125 6.06542 30.2125H6.3093C6.89017 30.2125 7.36105 30.6834 7.36105 31.2643V53.4307C7.36105 54.0116 6.89017 54.4825 6.3093 54.4825Z"
    fill="#C24E3D"/>
  <path
    d="M5.84616 54.4825H5.60229C5.02141 54.4825 4.55054 54.0116 4.55054 53.4307V31.2643C4.55054 30.6834 5.02141 30.2125 5.60229 30.2125H5.84616C6.42704 30.2125 6.89791 30.6834 6.89791 31.2643V53.4307C6.89791 54.0116 6.42704 54.4825 5.84616 54.4825Z"
    fill="#FF8B7A"/>
  <path
    d="M20.2297 30.2125H19.9858C19.405 30.2125 18.9341 30.6834 18.9341 31.2643V53.4307C18.9341 54.0116 19.405 54.4825 19.9858 54.4825H20.2297C20.8106 54.4825 21.2815 54.0116 21.2815 53.4307V31.2643C21.2813 30.6834 20.8106 30.2125 20.2297 30.2125Z"
    fill="#C24E3D"/>
  <path
    d="M19.7664 30.2125H19.5226C18.9417 30.2125 18.4708 30.6834 18.4708 31.2643V53.4307C18.4708 54.0116 18.9417 54.4825 19.5226 54.4825H19.7664C20.3473 54.4825 20.8182 54.0116 20.8182 53.4307V31.2643C20.8181 30.6834 20.3472 30.2125 19.7664 30.2125Z"
    fill="#FF8B7A"/>
  <path
    d="M13.2696 54.4825H13.0257C12.4449 54.4825 11.974 54.0116 11.974 53.4307V31.2643C11.974 30.6834 12.4449 30.2125 13.0257 30.2125H13.2696C13.8505 30.2125 14.3214 30.6834 14.3214 31.2643V53.4307C14.3212 54.0116 13.8504 54.4825 13.2696 54.4825Z"
    fill="#C24E3D"/>
  <path
    d="M12.8062 54.4825H12.5624C11.9815 54.4825 11.5106 54.0116 11.5106 53.4307V31.2643C11.5106 30.6834 11.9815 30.2125 12.5624 30.2125H12.8062C13.3871 30.2125 13.858 30.6834 13.858 31.2643V53.4307C13.858 54.0116 13.3871 54.4825 12.8062 54.4825Z"
    fill="#FF8B7A"/>
  <path d="M4.55066 28.8363V24.0755C4.55066 23.1228 5.32303 22.3504 6.27578 22.3504H19.5564C20.5092 22.3504 21.2815 23.1228 21.2815 24.0755V31.2245" stroke="#2D415A" stroke-width="5" stroke-miterlimit="10"/>
  <path d="M9.7135 5.31551V18.3795" stroke="#E3E3E3" stroke-width="10" stroke-miterlimit="10"/>
  <path d="M18.0026 18.3795V6.56925" stroke="#E3E3E3" stroke-width="10" stroke-miterlimit="10"/>
  <path d="M18.0025 7.61538V5.31538C18.0025 3.8985 16.8539 2.74988 15.437 2.74988H12.2789C10.862 2.74988 9.71338 3.8985 9.71338 5.31538V7.61538" stroke="#2D415A" stroke-width="14" stroke-miterlimit="10"/>
  <path d="M21.7676 28.2254H20.8181V29.5156H21.7676V28.2254Z" fill="#405C80"/>
  <path
    d="M27.8704 45.4874L26.4407 47.51V52.6015H27.8704H29.3002V47.51L27.8704 45.4874ZM27.8704 46.8126C27.6436 46.8126 27.4597 46.6288 27.4597 46.4019C27.4597 46.175 27.6436 45.9911 27.8704 45.9911C28.0973 45.9911 28.2812 46.175 28.2812 46.4019C28.2813 46.6286 28.0973 46.8126 27.8704 46.8126Z"
    fill="#73B4B2"/>
  <path
    d="M26.5801 43.953C26.5801 42.6676 27.171 41.5816 27.8704 41.5816C28.5698 41.5816 29.1606 42.6676 29.1606 43.953C29.1606 44.935 28.8153 45.7989 28.3406 46.1528L28.5043 46.3843C29.0596 45.9801 29.4396 45.0559 29.4396 43.953C29.4396 42.4669 28.7504 41.3026 27.8704 41.3026C26.9904 41.3026 26.3011 42.4668 26.3011 43.953C26.3011 45.0559 26.6811 45.9801 27.2365 46.3843L27.4001 46.1528C26.9255 45.7989 26.5801 44.935 26.5801 43.953Z"
    fill="#FFB561"/>
  <path
    d="M28.2379 46.2213C28.1209 46.2876 27.9976 46.3244 27.8705 46.3244C27.7433 46.3244 27.6201 46.2876 27.5031 46.2213C27.4761 46.276 27.4596 46.3366 27.4596 46.4018C27.4596 46.4433 27.4676 46.4824 27.479 46.5201C27.604 46.5725 27.7345 46.6034 27.8703 46.6034C28.0062 46.6034 28.1369 46.5726 28.2619 46.5201C28.2732 46.4824 28.2812 46.4433 28.2812 46.4018C28.2814 46.3366 28.2649 46.276 28.2379 46.2213Z"
    fill="#FFB561"/>
  <path d="M28.2378 46.2213C28.2648 46.276 28.2813 46.3366 28.2813 46.4018C28.2813 46.4433 28.2733 46.4824 28.2619 46.5201C28.3457 46.485 28.4269 46.4405 28.5044 46.3841L28.3408 46.1526C28.307 46.1779 28.2728 46.2014 28.2378 46.2213Z" fill="#FFB561"/>
</svg>
