<svg width="46" height="32" viewBox="0 0 46 32" fill="none" xmlns="http://www.w3.org/2000/svg">
  <path
    d="M0.25 15.753L6.88988 1.171C7.152 0.595378 7.91962 0.480003 8.33937 0.953128L10.8503 3.7835C11.0153 3.9695 11.1063 4.20938 11.1063 4.458C11.1063 4.97575 10.5041 5.26038 10.104 4.93175L8.54925 3.65463C8.34637 3.488 8.04037 3.56175 7.93575 3.8025L2.06125 17.3173L0.25 15.753Z"
    fill="#1B2736"/>
  <path
    d="M0.25 15.753L6.88988 1.171C7.152 0.595378 7.91962 0.480003 8.33937 0.953128L10.8503 3.7835C11.0153 3.9695 11.1063 4.20938 11.1063 4.458C11.1063 4.97575 10.5041 5.26038 10.104 4.93175L8.54925 3.65463C8.34637 3.488 8.04037 3.56175 7.93575 3.8025L2.06125 17.3173L0.25 15.753Z"
    fill="#1B2736"/>
  <path
    d="M45.75 15.753L39.1101 1.171C38.848 0.595378 38.0804 0.480003 37.6606 0.953128L35.1497 3.7835C34.9847 3.9695 34.8937 4.20938 34.8937 4.458C34.8937 4.97575 35.4959 5.26038 35.896 4.93175L37.4507 3.65463C37.6536 3.488 37.9596 3.56175 38.0642 3.8025L43.9387 17.3174L45.75 15.753Z"
    fill="#1B2736"/>
  <path
    d="M0.25 15.303C0.25 15.303 3.02975 13.6604 7.389 13.7235C11.7483 13.7868 17.2448 13.5971 20.8458 16.3138C20.8458 16.3138 21.8566 16.9455 22.9939 16.8193C24.0048 16.9456 25.142 16.3138 25.142 16.3138C28.7431 13.5971 34.2456 13.7868 38.6049 13.7235C42.9641 13.6603 45.75 15.303 45.75 15.303V18.146L44.6068 20.2309C44.6068 20.2309 44.7048 20.2275 44.6669 20.61C43.4665 32.7401 39.4215 31.287 32.4089 31.287C25.3962 31.287 24.7638 21.2417 24.511 20.4836C24.2583 19.7255 22.9944 19.4729 22.9944 19.4729C22.9944 19.4729 21.7306 19.7255 21.4779 20.4836C21.2251 21.2417 20.5934 31.287 13.5806 31.287C6.56788 31.287 2.5245 32.7401 1.32413 20.61C1.28625 20.2276 1.38725 20.2309 1.38725 20.2309L0.25 18.146V15.303Z"
    fill="#2D415A"/>
  <path
    d="M45.75 15.303C45.75 15.303 42.9641 13.6604 38.6049 13.7235C34.2456 13.7868 28.7461 13.5971 25.145 16.3138C25.145 16.3138 24.1326 16.9455 22.9954 16.8193C21.9845 16.9456 20.8465 16.3138 20.8465 16.3138C17.2454 13.5971 11.7485 13.7868 7.38925 13.7235C3.03012 13.6603 0.25 15.303 0.25 15.303V18.146L1.38725 20.2309C1.38725 20.2309 1.28625 20.2275 1.324 20.61C2.52438 32.7401 6.56775 31.287 13.5805 31.287C20.5933 31.287 21.2249 21.2417 21.4776 20.4836C21.7304 19.7255 22.9939 19.4729 22.9939 19.4729C22.9939 19.4729 24.2574 19.7255 24.5101 20.4836C24.7629 21.2417 25.3946 31.287 32.4072 31.287C39.4199 31.287 43.4634 32.7401 44.6637 20.61C44.7016 20.2276 44.6066 20.2309 44.6066 20.2309L45.75 18.146V15.303Z"
    fill="#2D415A"/>
  <path d="M2.45699 17.1984C3.25718 17.1984 3.90587 16.9438 3.90587 16.6297C3.90587 16.3157 3.25718 16.0611 2.45699 16.0611C1.6568 16.0611 1.00812 16.3157 1.00812 16.6297C1.00812 16.9438 1.6568 17.1984 2.45699 17.1984Z" fill="white"/>
  <path d="M43.5309 17.1984C44.3311 17.1984 44.9798 16.9438 44.9798 16.6297C44.9798 16.3157 44.3311 16.0611 43.5309 16.0611C42.7307 16.0611 42.082 16.3157 42.082 16.6297C42.082 16.9438 42.7307 17.1984 43.5309 17.1984Z" fill="white"/>
  <path
    d="M8.46307 21.8734C10.6921 24.4328 16.2106 23.1194 19.7691 21.9014C19.8466 20.7674 19.7391 19.73 19.5191 18.9671C18.5714 15.682 10.8638 15.7451 10.8638 15.7451C2.52445 15.366 3.21932 19.9149 3.21932 19.9149C3.21932 19.9149 3.1847 20.185 3.16357 20.6308C4.9342 20.1151 6.94757 20.1335 8.46307 21.8734Z"
    fill="#FFD161"/>
  <path
    d="M8.4631 21.8734C6.94772 20.1335 4.93422 20.1151 3.1636 20.6308C3.10997 21.7671 3.1476 24.0675 4.0856 26.1125C7.02922 27.296 14.1646 26.6377 18.5615 26.0726C19.3176 24.74 19.6767 23.2525 19.7691 21.9014C16.2106 23.1195 10.6921 24.4328 8.4631 21.8734Z"
    fill="#FFB561"/>
  <path d="M4.08563 26.1125C4.99051 28.0853 6.73276 29.8164 10.0425 30.0233C14.6263 30.3098 17.2189 28.4388 18.5615 26.0726C14.1646 26.6378 7.02926 27.2961 4.08563 26.1125Z" fill="#FF6650"/>
  <path
    d="M37.5237 21.8734C35.2947 24.4328 29.7762 23.1194 26.2177 21.9014C26.1402 20.7674 26.2477 19.73 26.4677 18.9671C27.4154 15.682 35.123 15.7451 35.123 15.7451C43.4624 15.366 42.7675 19.9149 42.7675 19.9149C42.7675 19.9149 42.8021 20.185 42.8232 20.6308C41.0526 20.1151 39.0392 20.1335 37.5237 21.8734Z"
    fill="#FFD161"/>
  <path
    d="M37.5238 21.8734C39.0391 20.1335 41.0526 20.1151 42.8233 20.6308C42.8769 21.7671 42.8393 24.0675 41.9013 26.1125C38.9576 27.296 31.8223 26.6377 27.4254 26.0726C26.6693 24.74 26.3101 23.2525 26.2178 21.9014C29.7763 23.1195 35.2948 24.4328 37.5238 21.8734Z"
    fill="#FFB561"/>
  <path d="M41.9012 26.1125C40.9965 28.0853 39.2541 29.8164 35.9444 30.0233C31.3606 30.3098 28.768 28.4388 27.4254 26.0726C31.8222 26.6378 38.9576 27.2961 41.9012 26.1125Z" fill="#FF6650"/>
</svg>
