<svg width="38" height="56" viewBox="0 0 38 56" fill="none" xmlns="http://www.w3.org/2000/svg">
  <path
    d="M20.7649 46.0636H2.05639C1.18052 46.0636 0.47052 45.3536 0.47052 44.4777V15.5377C0.47052 14.6619 1.18052 13.9519 2.05639 13.9519L20.7649 11.599C21.6408 11.599 22.3508 12.309 22.3508 13.1849V44.4776C22.3506 45.3535 21.6406 46.0636 20.7649 46.0636Z"
    fill="#228273"/>
  <path d="M2.73053 14.6961C1.85465 14.6961 1.14465 15.4061 1.14465 16.282V45.222C1.14465 45.4487 1.19303 45.664 1.27878 45.8591C1.50865 45.9887 1.77353 46.0636 2.05628 46.0636L21.4389 45.9536V12.6189L2.73053 14.6961Z" fill="white"/>
  <path
    d="M10.4705 0.182861V55.8172H17.6879C17.6879 55.8131 17.6876 55.8091 17.6876 55.8049C17.6876 52.3186 20.5139 49.4924 24.0001 49.4924C27.4864 49.4924 30.3126 52.3186 30.3126 55.8049C30.3126 55.809 30.3124 55.8131 30.3124 55.8172H37.5298V0.182861H10.4705Z"
    fill="#E3E3E3"/>
  <path d="M37.5295 0.182861H10.4705V9.86736H37.5295V0.182861Z" fill="#FF6650"/>
  <path d="M37.5295 0.182861H10.4705V1.29611H37.5295V0.182861Z" fill="#FF8B7A"/>
  <path
    d="M33.875 24.2129V22.6229L25.6705 19.09C25.7385 15.6039 25.3745 12.6641 23.9779 12.6641C22.5812 12.6641 22.2356 15.6039 22.3037 19.09L14.125 22.6229V24.2129L22.5536 23.4679C22.881 27.1732 23.4333 30.4056 23.4333 30.4056L21.375 30.9077V31.9956L23.5096 31.912L23.9911 32.5815L24.4712 31.912L26.625 31.9957V30.9078L24.5445 30.4057C24.5445 30.4057 25.0835 27.1732 25.4109 23.468L33.875 24.2129Z"
    fill="#2D415A"/>
  <path d="M15.4688 39.3391H15.0312V45.6516H15.4688V39.3391Z" fill="#2D415A"/>
  <path d="M16.5079 39.3391H15.7422V45.6516H16.5079V39.3391Z" fill="#2D415A"/>
  <path d="M17.2538 39.3391H16.8711V45.6516H17.2538V39.3391Z" fill="#2D415A"/>
  <path d="M17.9573 39.3391H17.6289V45.6516H17.9573V39.3391Z" fill="#2D415A"/>
  <path d="M18.7369 39.3391H18.1624V45.6516H18.7369V39.3391Z" fill="#2D415A"/>
  <path d="M19.2968 39.3391H19.0096V45.6516H19.2968V39.3391Z" fill="#2D415A"/>
  <path d="M20.013 39.3391H19.5755V45.6516H20.013V39.3391Z" fill="#2D415A"/>
  <path d="M21.0521 39.3391H20.2865V45.6516H21.0521V39.3391Z" fill="#2D415A"/>
  <path d="M21.7982 39.3391H21.4154V45.6516H21.7982V39.3391Z" fill="#2D415A"/>
  <path d="M22.5015 39.3391H22.1731V45.6516H22.5015V39.3391Z" fill="#2D415A"/>
  <path d="M23.2811 39.3391H22.7066V45.6516H23.2811V39.3391Z" fill="#2D415A"/>
  <path d="M23.8411 39.3391H23.5538V45.6516H23.8411V39.3391Z" fill="#2D415A"/>
  <path d="M24.4688 39.3391H24.0312V45.6516H24.4688V39.3391Z" fill="#2D415A"/>
  <path d="M25.5079 39.3391H24.7422V45.6516H25.5079V39.3391Z" fill="#2D415A"/>
  <path d="M26.2538 39.3391H25.8711V45.6516H26.2538V39.3391Z" fill="#2D415A"/>
  <path d="M26.9573 39.3391H26.6289V45.6516H26.9573V39.3391Z" fill="#2D415A"/>
  <path d="M27.7369 39.3391H27.1624V45.6516H27.7369V39.3391Z" fill="#2D415A"/>
  <path d="M28.2968 39.3391H28.0096V45.6516H28.2968V39.3391Z" fill="#2D415A"/>
  <path d="M29.1406 39.3391H28.7031V45.6516H29.1406V39.3391Z" fill="#2D415A"/>
  <path d="M30.1796 39.3391H29.414V45.6516H30.1796V39.3391Z" fill="#2D415A"/>
  <path d="M30.9257 39.3391H30.543V45.6516H30.9257V39.3391Z" fill="#2D415A"/>
  <path d="M31.6292 39.3391H31.3008V45.6516H31.6292V39.3391Z" fill="#2D415A"/>
  <path d="M32.4087 39.3391H31.8342V45.6516H32.4087V39.3391Z" fill="#2D415A"/>
  <path d="M32.9687 39.3391H32.6815V45.6516H32.9687V39.3391Z" fill="#2D415A"/>
  <path d="M16.1634 3.50874V3.13962H18.2295V3.50874H17.3886V6.9105H17.0041V3.50874H16.1634Z" fill="white"/>
  <path d="M18.7192 3.13962H19.096V6.9105H18.7192V3.13962Z" fill="white"/>
  <path
    d="M23.472 3.8395L23.1746 4.06762C23.0106 3.854 22.8135 3.69212 22.5836 3.58187C22.3538 3.47162 22.1013 3.4165 21.826 3.4165C21.5253 3.4165 21.2466 3.48875 20.9903 3.63312C20.7339 3.7775 20.5353 3.9715 20.3943 4.215C20.2533 4.4585 20.1828 4.7325 20.1828 5.03662C20.1828 5.49637 20.3405 5.88012 20.6558 6.18762C20.971 6.49512 21.3688 6.649 21.849 6.649C22.3771 6.649 22.8189 6.44225 23.1745 6.02862L23.4719 6.25425C23.2838 6.4935 23.0493 6.6785 22.7681 6.80925C22.487 6.94 22.1729 7.00537 21.826 7.00537C21.1664 7.00537 20.646 6.78575 20.2649 6.3465C19.9453 5.97562 19.7855 5.52787 19.7855 5.00312C19.7855 4.45112 19.9791 3.98675 20.3663 3.60987C20.7534 3.233 21.2383 3.04462 21.821 3.04462C22.173 3.04462 22.4909 3.11425 22.7748 3.2535C23.0584 3.393 23.2909 3.58825 23.472 3.8395Z"
    fill="white"/>
  <path d="M24.2281 3.13962H24.6126V4.55474L26.12 3.13962H26.6264L24.8153 4.83149L26.7674 6.9105H26.2654L24.6126 5.15399V6.9105H24.2281V3.13962Z" fill="white"/>
  <path d="M27.3326 3.13962H29.4936V3.50874H27.7095V4.69049H29.4783V5.05962H27.7095V6.54137H29.4783V6.9105H27.3326V3.13962Z" fill="white"/>
  <path d="M29.7705 3.50874V3.13962H31.8366V3.50874H30.9958V6.9105H30.6113V3.50874H29.7705Z" fill="white"/>
  <path
    d="M20.1944 47.5755H2.62677C1.43589 47.5755 0.47052 46.6101 0.47052 45.4192V17.6201C0.47052 16.4292 1.43589 15.4639 2.62677 15.4639H20.1945C21.3854 15.4639 22.3508 16.4292 22.3508 17.6201V45.4192C22.3506 46.6101 21.3853 47.5755 20.1944 47.5755Z"
    fill="#2FB49F"/>
  <path
    d="M11.4107 34.282C14.6762 34.282 17.3234 31.6348 17.3234 28.3693C17.3234 25.1037 14.6762 22.4565 11.4107 22.4565C8.14515 22.4565 5.49792 25.1037 5.49792 28.3693C5.49792 31.6348 8.14515 34.282 11.4107 34.282Z"
    stroke="white"
    stroke-width="5"
    stroke-miterlimit="10"/>
  <path d="M11.4375 22.5V34.25" stroke="white" stroke-width="5" stroke-miterlimit="10"/>
  <path d="M9.9703 34.105C9.9703 34.105 5.5558 28.5137 9.9703 22.6335" stroke="white" stroke-width="5" stroke-miterlimit="10"/>
  <path
    d="M11.4107 34.282C14.6762 34.282 17.3234 31.6348 17.3234 28.3693C17.3234 25.1037 14.6762 22.4565 11.4107 22.4565C8.14515 22.4565 5.49792 25.1037 5.49792 28.3693C5.49792 31.6348 8.14515 34.282 11.4107 34.282Z"
    stroke="white"
    stroke-width="5"
    stroke-miterlimit="10"/>
  <path d="M12.8509 34.105C12.8509 34.105 17.2654 28.5137 12.8509 22.6335" stroke="white" stroke-width="5" stroke-miterlimit="10"/>
  <path d="M5.53564 27.7014C5.53564 27.7014 6.35264 29.9887 11.4106 29.9887C16.4686 29.9887 17.2856 27.7017 17.2856 27.7017" stroke="white" stroke-width="5" stroke-miterlimit="10"/>
  <path
    d="M3.40931 40.5636H3.89456C4.17281 40.5636 4.36043 40.5757 4.45768 40.6001C4.5968 40.6343 4.71056 40.7047 4.79881 40.8112C4.88706 40.9177 4.93118 41.0516 4.93118 41.2128C4.93118 41.3751 4.88818 41.509 4.80193 41.6145C4.7158 41.7198 4.59718 41.7908 4.44593 41.8272C4.33556 41.8537 4.12906 41.867 3.82656 41.867H3.65268V42.9997H3.40918V40.5636H3.40931ZM3.65281 40.8021V41.6285L4.06518 41.6335C4.23193 41.6335 4.35393 41.6183 4.43118 41.5881C4.50843 41.5577 4.56918 41.5087 4.61331 41.441C4.65743 41.3732 4.67943 41.2975 4.67943 41.2137C4.67943 41.1322 4.65731 41.0576 4.61331 40.9898C4.56918 40.9221 4.5108 40.8738 4.43855 40.8452C4.36618 40.8166 4.24781 40.8022 4.08331 40.8022H3.65281V40.8021Z"
    fill="white"/>
  <path d="M6.41356 40.5636L7.54969 42.9997H7.28669L6.90356 42.1982H5.85419L5.47469 42.9997H5.20306L6.35406 40.5636H6.41356ZM6.38269 41.0812L5.96531 41.963H6.79819L6.38269 41.0812Z" fill="white"/>
  <path
    d="M7.67542 42.546L7.88242 42.4217C8.02817 42.6901 8.19642 42.8242 8.38754 42.8242C8.46929 42.8242 8.54592 42.8052 8.61779 42.767C8.68954 42.7288 8.74417 42.6778 8.78167 42.6138C8.81917 42.5498 8.83792 42.482 8.83792 42.4101C8.83792 42.3283 8.81029 42.2483 8.75517 42.17C8.67892 42.0618 8.53991 41.9315 8.33779 41.7791C8.13466 41.6257 8.00829 41.5147 7.95854 41.4463C7.87241 41.3315 7.82941 41.2072 7.82941 41.0737C7.82941 40.9677 7.85479 40.8712 7.90554 40.784C7.95642 40.6968 8.02779 40.628 8.12004 40.5778C8.21217 40.5276 8.31229 40.5025 8.42067 40.5025C8.53554 40.5025 8.64279 40.531 8.74266 40.5877C8.84254 40.6446 8.94829 40.7492 9.05992 40.9016L8.86117 41.0522C8.76954 40.9308 8.69154 40.8507 8.62679 40.8121C8.56229 40.7735 8.49191 40.7541 8.41566 40.7541C8.31741 40.7541 8.23704 40.7838 8.17479 40.8435C8.11241 40.9031 8.08117 40.9765 8.08117 41.0638C8.08117 41.1168 8.09217 41.1682 8.11429 41.2178C8.13642 41.2675 8.17666 41.3216 8.23516 41.3802C8.26716 41.4111 8.37204 41.4922 8.54979 41.6236C8.76054 41.7792 8.90517 41.9178 8.98367 42.0392C9.06204 42.1607 9.10129 42.2827 9.10129 42.4052C9.10129 42.5818 9.03416 42.7353 8.90004 42.8656C8.76591 42.9958 8.60279 43.0611 8.41067 43.0611C8.26267 43.0611 8.12854 43.0216 8.00829 42.9427C7.88791 42.8637 7.77692 42.7315 7.67542 42.546Z"
    fill="white"/>
  <path
    d="M9.36456 42.546L9.57156 42.4217C9.71731 42.6901 9.88556 42.8242 10.0767 42.8242C10.1584 42.8242 10.2351 42.8052 10.3069 42.767C10.3787 42.7288 10.4333 42.6778 10.4708 42.6138C10.5083 42.5498 10.5271 42.482 10.5271 42.4101C10.5271 42.3283 10.4994 42.2483 10.4443 42.17C10.3681 42.0618 10.2291 41.9315 10.0269 41.7791C9.82381 41.6257 9.69744 41.5147 9.64769 41.4463C9.56156 41.3315 9.51856 41.2072 9.51856 41.0737C9.51856 40.9677 9.54394 40.8712 9.59469 40.784C9.64556 40.6968 9.71694 40.628 9.80919 40.5778C9.90131 40.5276 10.0014 40.5025 10.1098 40.5025C10.2247 40.5025 10.3319 40.531 10.4318 40.5877C10.5317 40.6446 10.6374 40.7492 10.7491 40.9016L10.5503 41.0522C10.4587 40.9308 10.3807 40.8507 10.3159 40.8121C10.2514 40.7735 10.1811 40.7541 10.1048 40.7541C10.0066 40.7541 9.92619 40.7838 9.86394 40.8435C9.80156 40.9031 9.77031 40.9765 9.77031 41.0638C9.77031 41.1168 9.78131 41.1682 9.80344 41.2178C9.82556 41.2675 9.86581 41.3216 9.92431 41.3802C9.95631 41.4111 10.0612 41.4922 10.2389 41.6236C10.4497 41.7792 10.5943 41.9178 10.6727 42.0392C10.7511 42.1607 10.7903 42.2827 10.7903 42.4052C10.7903 42.5818 10.7232 42.7353 10.5891 42.8656C10.4549 42.9958 10.2918 43.0611 10.0997 43.0611C9.95169 43.0611 9.81756 43.0216 9.69731 42.9427C9.57706 42.8637 9.46606 42.7315 9.36456 42.546Z"
    fill="white"/>
  <path
    d="M11.3038 40.5636H11.7891C12.0673 40.5636 12.255 40.5757 12.3522 40.6001C12.4913 40.6343 12.6051 40.7047 12.6933 40.8112C12.7816 40.9177 12.8257 41.0516 12.8257 41.2128C12.8257 41.3751 12.7827 41.509 12.6965 41.6145C12.6103 41.7198 12.4917 41.7908 12.3405 41.8272C12.2301 41.8537 12.0236 41.867 11.7211 41.867H11.5472V42.9997H11.3037V40.5636H11.3038ZM11.5473 40.8021V41.6285L11.9597 41.6335C12.1265 41.6335 12.2485 41.6183 12.3257 41.5881C12.403 41.5577 12.4637 41.5087 12.5078 41.441C12.552 41.3732 12.574 41.2975 12.574 41.2137C12.574 41.1322 12.5518 41.0576 12.5078 40.9898C12.4637 40.9221 12.4053 40.8738 12.3331 40.8452C12.2607 40.8166 12.1423 40.8022 11.9778 40.8022H11.5473V40.8021Z"
    fill="white"/>
  <path
    d="M14.4727 40.5023C14.8417 40.5023 15.1505 40.6255 15.3991 40.8717C15.6477 41.118 15.772 41.421 15.772 41.781C15.772 42.1376 15.648 42.4401 15.4 42.6885C15.152 42.9368 14.8496 43.0611 14.4927 43.0611C14.1315 43.0611 13.8265 42.9373 13.578 42.6901C13.3293 42.4427 13.2051 42.1435 13.2051 41.7925C13.2051 41.5585 13.2616 41.3415 13.375 41.1417C13.4882 40.9418 13.6425 40.7853 13.8381 40.6722C14.0336 40.559 14.2452 40.5023 14.4727 40.5023ZM14.4836 40.7391C14.3033 40.7391 14.1325 40.7861 13.9711 40.8801C13.8097 40.974 13.6836 41.1005 13.593 41.2596C13.5023 41.4187 13.457 41.596 13.457 41.7916C13.457 42.0811 13.5572 42.3255 13.758 42.525C13.9586 42.7243 14.2006 42.8241 14.4836 42.8241C14.6727 42.8241 14.8476 42.7782 15.0086 42.6866C15.1695 42.5948 15.295 42.4695 15.3851 42.3103C15.4752 42.1512 15.5203 41.9745 15.5203 41.78C15.5203 41.5866 15.4752 41.4117 15.3851 41.2553C15.2951 41.099 15.1681 40.9738 15.0045 40.88C14.8407 40.7861 14.6671 40.7391 14.4836 40.7391Z"
    fill="white"/>
  <path
    d="M16.2737 40.5636H16.7589C17.0294 40.5636 17.2127 40.5746 17.3087 40.5967C17.4533 40.63 17.5709 40.701 17.6614 40.8098C17.7519 40.9186 17.7973 41.0527 17.7973 41.212C17.7973 41.3446 17.7661 41.4612 17.7038 41.5618C17.6414 41.6623 17.5523 41.7385 17.4363 41.7898C17.3203 41.8413 17.1602 41.8675 16.9559 41.8686L17.8319 42.9997H17.5308L16.6547 41.8686H16.5171V42.9997H16.2736V40.5636H16.2737ZM16.5172 40.8021V41.6301L16.9368 41.6335C17.0994 41.6335 17.2196 41.618 17.2977 41.5871C17.3756 41.5562 17.4364 41.5067 17.4801 41.4388C17.5238 41.371 17.5456 41.295 17.5456 41.2111C17.5456 41.1293 17.5234 41.0551 17.4792 40.9883C17.4349 40.9216 17.3769 40.8738 17.3051 40.8451C17.2332 40.8163 17.1137 40.802 16.9468 40.802H16.5172V40.8021Z"
    fill="white"/>
  <path d="M18.0772 40.8021V40.5636H19.412V40.8021H18.8688V42.9997H18.6205V40.8021H18.0772Z" fill="white"/>
</svg>
