<svg xmlns="http://www.w3.org/2000/svg" viewBox="0 0 66 60" fill="none">
  <path fill="#04EBCD" d="M33.7281 59.9344c21.4536-1.4066 31.3115-7.2232 32.2187-29.0445.9072-21.82131-10.058-35.02862-30.573-29.71578C14.8587 6.48696 2.48748 10.126.23333 24.9797-2.02082 39.8335 12.2744 61.3409 33.7281 59.9344z" opacity=".113449"/>
  <path stroke="#02EBCD" stroke-linecap="round" stroke-width="3" d="M52.4912 24.5193s-36.3639-1.23-40.3673 0c-4.00341 1.2301 3.8469 18.8158 5.5173 20.0075 1.5656 1.117 22.756 2.5181 26.8009.2887 4.045-2.2294 12.0532-22.2356 8.0491-20.0496M38.1579 23.1429S32.1884 14 31.035 14c-1.1534 0-8.7192 9.1429-8.7192 9.1429"/>
</svg>
