<svg xmlns="http://www.w3.org/2000/svg" id="Layer_1" viewBox="0 0 585.5 687.7">
  <style>
    .st0{stroke:#fff;stroke-width:8;stroke-miterlimit:10}
  </style>
  <path fill="#fff" d="M292.6 685.7c-67.7-.1-133.8-9.9-198-32-24.6-8.5-48.2-18.9-71.2-31.2-10.5-5.6-15.7-13.7-17.7-25-4.1-22.5-4.4-45.2-3.2-68 .9-18.2 3.6-36 10.7-52.9 11.3-26.6 30.5-44 58.5-51.6 40.5-11.1 78-29.1 113-52.1 11-7.2 24.4-3.5 29.3 8.4 3.4 8.3.5 17.6-7.5 23-18.4 12.5-37.9 23.2-58 32.7-22.6 10.7-46 19.1-70.1 26-16 4.6-25.8 16.4-31.3 31.8-4.1 11.3-5.6 23.2-6.3 35.2-1.2 18.6-1 37.2 1.6 55.7.4 2.8 1.6 4.4 4 5.7 35.2 18.6 72.5 31.5 111.1 40.7 54.4 13 109.6 17.7 165.5 14.9 64.2-3.3 126.5-15.8 185.8-41 10.7-4.5 21-9.9 31.3-15.1 1.3-.6 2.5-2.4 2.7-3.8 3-19.2 3.4-38.6 1.7-57.9-1-10.8-2.6-21.6-5.6-32-5.3-18.4-17.3-30.8-36.5-35.5-6.5-1.6-13-3.7-19.3-5.9-36.7-12.5-71.2-29.5-103.5-50.9-8.6-5.7-11.7-15.2-8-23.8 4.8-11.2 17.7-15.1 28.2-8.7 11.4 7 22.7 14 34.4 20.4 25 13.7 51.2 24.7 78.8 32.1 29.6 7.9 49.4 26.5 60.4 54.9 6 15.7 8.5 32 9.4 48.7 1.2 23.4.9 46.7-3 69.8-1.9 11.3-7.5 18.7-17.6 24.2-31.9 17.3-65.3 30.4-100.1 40.3-53 15.1-107.2 22.3-162.3 22.9h-7.2z" class="st0"/>
  <path fill="#fff" d="M144.7 183.1c.8-29.7 1.6-54.2 8.2-78 10.2-36.9 30.6-66.2 64.7-84.8C245.4 5.2 275.3 0 306.7 2.6c23.2 1.9 45.1 8.2 65.2 20.2 29.5 17.5 48.1 43.6 58.5 76 5.1 15.9 7.4 32.3 8.6 48.9 2.7 35 1.2 69.7-7.2 103.8-6.7 27.3-17.4 52.8-36.1 74.4-21.2 24.5-48.2 38.3-80.1 42.8-25.4 3.6-50.4 1.8-74.6-7-31.1-11.4-53.5-32.8-69.3-61.5-13.6-24.9-20.7-51.8-24.1-79.8-1.6-14.1-2.2-28.3-2.9-37.3zm37.9-1c.9 9.9 1.6 23.8 3.4 37.5 2.9 22.4 8.8 44 20 63.9 13 23 31.7 39 57.7 45.3 17.4 4.2 34.9 4.5 52.4 1.1 21.2-4 38.7-14.2 52.4-30.9 10.7-13 17.8-27.9 22.8-43.9 8.8-27.8 11.4-56.4 10.6-85.4-.6-20.2-1.8-40.4-8.2-59.9-10.2-31.2-30.3-52.9-61.8-63.2-19.9-6.5-40.4-8.1-61-4.6-40.6 6.8-67.5 29.6-79.9 69.1-7 21.9-7.3 44.5-8.4 71z" class="st0"/>
</svg>