<svg width="26" height="26" viewBox="0 0 26 26" fill="none" xmlns="http://www.w3.org/2000/svg">
<path fill-rule="evenodd" clip-rule="evenodd" d="M18.9587 17.9437L24.7924 23.7761C25.0692 24.0528 25.0692 24.5104 24.7924 24.7871C24.654 24.9308 24.4677 25 24.2868 25C24.1058 25 23.9195 24.9255 23.7811 24.7871L17.9474 18.9548C16.1484 20.5193 13.8011 21.4665 11.2355 21.4665C5.59348 21.4665 1 16.8741 1 11.2333C1 5.59246 5.58816 1 11.2355 1C16.8776 1 21.4711 5.58714 21.4711 11.2333C21.4711 13.7982 20.5236 16.145 18.9587 17.9437ZM11.2302 2.43681C6.38124 2.43681 2.4318 6.38004 2.4318 11.2333C2.4318 16.0865 6.38124 20.035 11.2302 20.035C16.0845 20.035 20.0286 16.0812 20.0286 11.2333C20.0286 6.38537 16.0845 2.43681 11.2302 2.43681Z" fill="#5A06FF"/>
<path d="M24.7924 23.7761L25.0045 23.5639L24.7924 23.7761ZM18.9587 17.9437L18.7324 17.7468L18.5487 17.9579L18.7466 18.1558L18.9587 17.9437ZM24.7924 24.7871L24.5803 24.5749L24.5763 24.579L24.7924 24.7871ZM23.7811 24.7871L23.9932 24.575L23.7811 24.7871ZM17.9474 18.9548L18.1595 18.7426L17.9617 18.5448L17.7506 18.7284L17.9474 18.9548ZM25.0045 23.5639L19.1709 17.7315L18.7466 18.1558L24.5803 23.9882L25.0045 23.5639ZM25.0045 24.9993C25.3985 24.6054 25.3985 23.9578 25.0045 23.5639L24.5803 23.9882C24.7399 24.1478 24.7399 24.4154 24.5803 24.575L25.0045 24.9993ZM24.2868 25.3C24.5426 25.3 24.8091 25.2023 25.0085 24.9953L24.5763 24.579C24.499 24.6594 24.3929 24.7 24.2868 24.7V25.3ZM23.569 24.9993C23.7633 25.1936 24.0258 25.3 24.2868 25.3V24.7C24.1858 24.7 24.0756 24.6574 23.9932 24.575L23.569 24.9993ZM17.7353 19.1669L23.569 24.9993L23.9932 24.575L18.1595 18.7426L17.7353 19.1669ZM11.2355 21.7665C13.8763 21.7665 16.2929 20.7912 18.1443 19.1811L17.7506 18.7284C16.0039 20.2474 13.7258 21.1665 11.2355 21.1665V21.7665ZM0.7 11.2333C0.7 17.0398 5.42786 21.7665 11.2355 21.7665V21.1665C5.7591 21.1665 1.3 16.7083 1.3 11.2333H0.7ZM11.2355 0.7C5.42243 0.7 0.7 5.42681 0.7 11.2333H1.3C1.3 5.75811 5.75388 1.3 11.2355 1.3V0.7ZM21.7711 11.2333C21.7711 5.42129 17.0431 0.7 11.2355 0.7V1.3C16.7121 1.3 21.1711 5.75299 21.1711 11.2333H21.7711ZM19.1851 18.1406C20.7955 16.2896 21.7711 13.8735 21.7711 11.2333H21.1711C21.1711 13.7229 20.2517 16.0005 18.7324 17.7468L19.1851 18.1406ZM2.7318 11.2333C2.7318 6.54591 6.54674 2.73681 11.2302 2.73681V2.13681C6.21573 2.13681 2.1318 6.21418 2.1318 11.2333H2.7318ZM11.2302 19.735C6.54698 19.735 2.7318 15.9208 2.7318 11.2333H2.1318C2.1318 16.2521 6.2155 20.335 11.2302 20.335V19.735ZM19.7286 11.2333C19.7286 15.9158 15.9185 19.735 11.2302 19.735V20.335C16.2505 20.335 20.3286 16.2465 20.3286 11.2333H19.7286ZM11.2302 2.73681C15.9188 2.73681 19.7286 6.551 19.7286 11.2333H20.3286C20.3286 6.21974 16.2502 2.13681 11.2302 2.13681V2.73681Z" fill="#5A06FF"/>
</svg>
