<svg width="44" height="44" viewBox="0 0 44 44" fill="none" xmlns="http://www.w3.org/2000/svg">
<path d="M22 44C34.1503 44 44 34.1503 44 22C44 9.84974 34.1503 0 22 0C9.84974 0 0 9.84974 0 22C0 34.1503 9.84974 44 22 44Z" fill="#5A06FF"/>
<path d="M35.0175 18.7825C35.0175 18.7825 11.3387 17.9895 8.73184 18.7825C6.12497 19.5756 11.2368 30.9137 12.3245 31.6821C13.344 32.4022 27.1423 33.3056 29.7763 31.8682C32.4102 30.4308 37.6249 17.5321 35.0175 18.9415" stroke="white" stroke-width="2" stroke-linecap="round"/>
<path d="M25.6842 17.8947C25.6842 17.8947 21.7971 12 21.046 12C20.295 12 15.3684 17.8947 15.3684 17.8947" stroke="white" stroke-width="2" stroke-linecap="round"/>
</svg>
