<svg width="548" height="648" viewBox="0 0 548 648" fill="none" xmlns="http://www.w3.org/2000/svg"><g clip-path="url(#clip0)"><path d="M672.348 98.848L448.295 31.701c-41.031 49.188-83.613 32.994-148.146-44.399l-.131-.04c14.171 182.983-23.111 222.999-190.566 194.405 108.44 121.58 89.696 170.298-106.738 248.41 154.817 15.941 176.451 53.882 73.558 166.462L486.36 719.441 672.348 98.848z" fill="#fff"/><path d="M548 .822H325.597c-21.213 102.72-66.378 111.909-168.068 44.571C223.771 216.96 199.41 265.92 30.794 286.765 169.71 372.068 165.741 424.182 0 555.566 133.989 529.92 174.911 550.08 138.232 648H548V.822z" fill="#2F2F2F"/><path d="M547.315.137H369.12c-22.72 86.73-68.295 91.258-164.099 27.858 66.242 171.674 41.88 220.666-126.735 241.525 138.779 85.494 134.81 137.641-30.931 269.108C188.733 511.593 226.507 535.471 178.88 648h368.435V.137z" fill="#00AC69"/></g><defs><clipPath id="clip0"><path fill="#fff" d="M0 0h548v648H0z"/></clipPath></defs></svg>