<svg width="685" height="418" viewBox="0 0 685 418" fill="none" xmlns="http://www.w3.org/2000/svg"><path fill-rule="evenodd" clip-rule="evenodd" d="M260.032 343.934h-31.107v-.408c0-17.105 13.953-31.02 31.107-31.02v.816c-16.565 0-30.066 13.327-30.287 29.796h30.287v.816zm357.073-163.892l-.413-.004c-16.054-.167-28.971-14.059-28.795-30.964l.818.006c-.17 16.312 12.16 29.739 27.572 30.134v-30.138h.818v30.966zM611.302 320.2l-.413-.004c-7.801-.081-15.08-3.327-20.503-9.141-5.433-5.827-8.375-13.578-8.289-21.823l.817.006c-.085 8.04 2.783 15.59 8.071 21.261 5.173 5.546 12.083 8.688 19.499 8.875v-30.14h.818V320.2zm-87.87 5.646l-.319-.002.008-.816c.103.002.207.002.311.002 14.95 0 27.204-11.274 27.582-25.345h-27.897v-.816h28.729l-.004.412c-.157 14.71-12.869 26.565-28.41 26.565zm-12.324 28.321l-.818-.008c.157-15.046-11.207-27.433-25.414-27.817v27.821h-.818v-28.648l.413.004c14.851.155 26.801 13.007 26.637 28.648zm1.068-67.78l-.818-.008c.158-15.046-11.207-27.433-25.414-27.816v27.82h-.818v-28.648l.413.004c14.851.155 26.801 13.007 26.637 28.648zm-59.115.016l-.818-.008c.141-13.507-10.784-24.633-24.435-24.994l.019 24.982h-.818l-.019-25.81.413.004c14.293.149 25.803 11.736 25.658 25.826zm143.047-85.189h-31.054v-.816h30.224c-.393-15.262-13.68-27.494-29.885-27.494-.11 0-.221 0-.335.002l-.006-.817h.341c16.8 0 30.543 12.813 30.711 28.713l.004.412zM442.104 355.326c-.176-16.906 12.741-30.798 28.795-30.969l.413-.002v30.967h-.818v-30.139c-15.409.396-27.741 13.822-27.572 30.135l-.818.008zm2.705-19.6h-31.056v-.815h30.226c-.393-15.263-13.68-27.495-29.887-27.495-.112 0-.222 0-.335.002l-.006-.815.341-.002c16.8 0 30.545 12.813 30.713 28.713l.004.412z" fill="#fff"/><path fill-rule="evenodd" clip-rule="evenodd" d="M27.271 96.385h1.023v-.612H27.27v.612zm16.888 0h1.98v-.612h-1.98v.612zm-3.57 0h1.98v-.612h-1.98v.612zm-3.57 0h1.98v-.612h-1.98v.612zm-3.571 0h1.983v-.612h-1.983v.612zm-3.568 0h1.981v-.612H29.88v.612zm17.847 0h1.023v-.612h-1.023v.612z" fill="#575858"/><path fill-rule="evenodd" clip-rule="evenodd" d="M644.202 208.852h-81.891v-.815h81.073v-61.45h.818v62.265z" fill="#fff"/><path fill-rule="evenodd" clip-rule="evenodd" d="M649.276 163.757a38.75 38.75 0 0 0 5.674.434 33.45 33.45 0 0 0 5.247-.434 33.473 33.473 0 0 0-5.247-.434c-2.37 0-4.449.248-5.674.434zm5.674.842c-3.809 0-6.885-.636-6.913-.642l-.951-.2.951-.2c.028-.006 3.104-.644 6.913-.644 3.499 0 6.382.638 6.411.644l.889.2-.889.2c-.029.006-2.912.642-6.411.642zm-5.674 4.816a38.8 38.8 0 0 0 5.674.434c2.176 0 4.106-.248 5.247-.434a33.596 33.596 0 0 0-5.247-.434c-2.368 0-4.447.249-5.674.434zm5.674.842c-3.809 0-6.885-.636-6.913-.642l-.951-.2.951-.2c.028-.006 3.104-.642 6.913-.642 3.499 0 6.382.636 6.411.642l.889.2-.889.2c-.029.006-2.912.642-6.411.642zm-5.674 10.506c1.225.186 3.304.435 5.674.435 2.176 0 4.108-.249 5.247-.435a33.596 33.596 0 0 0-5.247-.434c-2.37 0-4.449.249-5.674.434zm5.674.842c-3.809 0-6.885-.636-6.913-.642l-.951-.2.951-.199c.028-.007 3.104-.645 6.913-.645 3.499 0 6.382.638 6.411.645l.889.199-.889.2c-.029.006-2.912.642-6.411.642zm-5.483-7.003a37.954 37.954 0 0 0 5.347 1.848c2.104.55 4.043.795 5.19.903a30.392 30.392 0 0 0-1.294-.542 31.527 31.527 0 0 0-3.642-1.197 38.705 38.705 0 0 0-5.601-1.012zm12.508 3.269l-.904-.033c-.028 0-2.985-.112-6.361-.993-3.67-.96-6.457-2.349-6.484-2.363l-.861-.432.961.047c.033.002 3.174.163 6.846 1.123 1.221.318 2.462.726 3.689 1.211 1.403.553 2.304 1.018 2.313 1.022l.801.418zm-12.699-21.477c1.225.185 3.304.434 5.674.434 2.176 0 4.106-.249 5.247-.434a33.45 33.45 0 0 0-5.247-.435c-2.37 0-4.449.249-5.674.435zm5.674.844c-3.809 0-6.885-.639-6.913-.645l-.951-.199.951-.2c.028-.006 3.104-.643 6.913-.643 3.499 0 6.382.637 6.411.643l.889.2-.889.199c-.029.006-2.912.645-6.411.645zm-5.674 40.571a38.75 38.75 0 0 0 5.674.434 33.45 33.45 0 0 0 5.247-.434 33.596 33.596 0 0 0-5.247-.434c-2.37 0-4.449.249-5.674.434zm5.674.842c-3.809 0-6.885-.636-6.913-.642l-.951-.2.951-.2c.028-.006 3.104-.644 6.913-.644 3.499 0 6.382.638 6.411.644l.889.2-.889.2c-.029.006-2.912.642-6.411.642zm-5.674 4.035c1.227.185 3.306.434 5.674.434 2.176 0 4.106-.249 5.247-.434a33.45 33.45 0 0 0-5.247-.435c-2.368 0-4.447.249-5.674.435zm5.674.842c-3.809 0-6.885-.636-6.913-.643l-.951-.199.951-.2c.028-.006 3.104-.642 6.913-.642 3.499 0 6.382.636 6.411.642l.889.2-.889.199c-.029.007-2.912.643-6.411.643zm-5.674-14.974a38.75 38.75 0 0 0 5.674.434 33.45 33.45 0 0 0 5.247-.434 33.473 33.473 0 0 0-5.247-.434c-2.37 0-4.449.248-5.674.434zm5.674.842c-3.809 0-6.885-.636-6.913-.642l-.951-.2.951-.2c.028-.006 3.104-.644 6.913-.644 3.499 0 6.382.638 6.411.644l.889.2-.889.2c-.029.006-2.912.642-6.411.642zm-5.483 18.524a38.33 38.33 0 0 0 5.347 1.847c2.105.548 4.043.795 5.19.903a31.704 31.704 0 0 0-4.936-1.739 38.353 38.353 0 0 0-5.601-1.011zm12.508 3.266l-.904-.03c-.028-.002-2.985-.113-6.361-.995-3.67-.959-6.457-2.347-6.484-2.362l-.863-.432.963.047c.033.002 3.174.163 6.846 1.121 1.221.319 2.462.726 3.689 1.212 1.403.554 2.305 1.019 2.313 1.023l.801.416zm-18.029 1.993a38.5 38.5 0 0 0-.436 5.657c0 2.169.25 4.094.436 5.232.188-1.138.438-3.063.438-5.232 0-2.361-.25-4.435-.438-5.657zm0 12.936l-.2-.887c-.007-.026-.642-2.901-.642-6.392 0-3.799.635-6.864.642-6.894l.2-.948.2.948c.006.03.644 3.095.644 6.894 0 3.491-.638 6.366-.644 6.392l-.2.887zm-5.803-12.936a38.526 38.526 0 0 0-.435 5.657c0 2.169.249 4.094.435 5.232.188-1.138.438-3.063.438-5.232 0-2.361-.25-4.435-.438-5.657zm0 12.936l-.2-.887c-.006-.026-.642-2.901-.642-6.392 0-3.799.636-6.864.642-6.894l.2-.948.201.948c.006.03.644 3.095.644 6.894 0 3.491-.638 6.366-.644 6.392l-.201.887zm-6.587-12.936a38.526 38.526 0 0 0-.435 5.657c0 2.169.249 4.094.435 5.232.188-1.138.438-3.063.438-5.232 0-2.361-.25-4.435-.438-5.657zm0 12.936l-.2-.887c-.006-.026-.642-2.901-.642-6.392 0-3.799.636-6.864.642-6.894l.2-.948.201.948c.006.03.644 3.095.644 6.894 0 3.491-.638 6.366-.644 6.392l-.201.887zm-27.097-13.013a33.226 33.226 0 0 0-.436 5.228c0 2.363.25 4.437.436 5.66a38.23 38.23 0 0 0 .437-5.66 32.94 32.94 0 0 0-.437-5.228zm0 13.072l-.201-.948c-.006-.029-.642-3.095-.642-6.896 0-3.487.636-6.362.642-6.39l.201-.885.2.885c.006.028.644 2.903.644 6.39 0 3.801-.638 6.867-.644 6.896l-.2.948zm12.374-13.072a33.226 33.226 0 0 0-.436 5.228c0 2.363.25 4.437.436 5.66a38.23 38.23 0 0 0 .437-5.66 32.94 32.94 0 0 0-.437-5.228zm0 13.072l-.201-.948c-.006-.029-.642-3.095-.642-6.896 0-3.487.636-6.362.642-6.39l.201-.885.2.885c.006.028.644 2.903.644 6.39 0 3.801-.638 6.867-.644 6.896l-.2.948zm-4.129-11.591a31.943 31.943 0 0 0-1.2 3.63 37.938 37.938 0 0 0-1.012 5.589 38.203 38.203 0 0 0 1.85-5.334c.552-2.096.8-4.027.906-5.173-.157.35-.343.787-.544 1.288zm-2.768 11.315l.049-.96c0-.033.163-3.167 1.124-6.829a31.783 31.783 0 0 1 1.215-3.677c.556-1.4 1.02-2.295 1.024-2.304l.42-.801-.033.901c0 .031-.113 2.979-.996 6.344-.961 3.662-2.356 6.439-2.37 6.467l-.433.859zm16.372-11.315a31.755 31.755 0 0 0-1.201 3.63 38.073 38.073 0 0 0-1.012 5.589 38.05 38.05 0 0 0 1.851-5.334c.552-2.096.799-4.027.906-5.173-.158.35-.344.787-.544 1.288zm-2.769 11.315l.049-.96c0-.033.164-3.167 1.125-6.829a31.966 31.966 0 0 1 1.214-3.677c.557-1.4 1.021-2.295 1.025-2.304l.419-.801-.033.901c0 .031-.112 2.979-.996 6.344-.961 3.662-2.355 6.439-2.369 6.467l-.434.859zm-28.116-12.72a38.286 38.286 0 0 0-.438 5.658c0 2.171.251 4.096.438 5.234.186-1.138.437-3.063.437-5.234 0-2.363-.251-4.437-.437-5.658zm0 12.935l-.201-.885c-.006-.028-.644-2.901-.644-6.392 0-3.799.638-6.864.644-6.894l.201-.946.2.946c.006.03.644 3.095.644 6.894 0 3.491-.638 6.364-.644 6.392l-.2.885zm-9.947-12.934a38.195 38.195 0 0 0-.437 5.657c0 2.169.249 4.094.437 5.232.186-1.138.436-3.063.436-5.232a38.5 38.5 0 0 0-.436-5.657zm0 12.936l-.2-.887c-.006-.026-.644-2.901-.644-6.392 0-3.799.638-6.864.644-6.894l.2-.948.201.948c.006.03.642 3.095.642 6.894 0 3.491-.636 6.366-.642 6.392l-.201.887zm-6.587-12.936a38.195 38.195 0 0 0-.437 5.657c0 2.169.249 4.094.437 5.232.186-1.138.436-3.063.436-5.232a38.5 38.5 0 0 0-.436-5.657zm0 12.936l-.2-.887c-.006-.026-.644-2.901-.644-6.392 0-3.799.638-6.864.644-6.894l.2-.948.201.948c.006.03.642 3.095.642 6.894 0 3.491-.636 6.366-.642 6.392l-.201.887zm-14.723-13.013a32.918 32.918 0 0 0-.438 5.228c0 2.363.25 4.437.438 5.66.186-1.223.435-3.297.435-5.66 0-2.166-.249-4.09-.435-5.228zm0 13.072l-.201-.948c-.006-.029-.644-3.095-.644-6.896 0-3.487.638-6.362.644-6.39l.201-.885.2.885c.006.028.642 2.903.642 6.39 0 3.801-.636 6.867-.642 6.896l-.2.948zm9.474-11.591a32.015 32.015 0 0 0-1.199 3.63 38.13 38.13 0 0 0-1.014 5.589 38.008 38.008 0 0 0 1.853-5.334c.552-2.098.799-4.031.908-5.177-.162.352-.348.789-.548 1.292zm-2.765 11.315l.047-.96c0-.033.162-3.167 1.125-6.829a32.276 32.276 0 0 1 1.212-3.676c.558-1.401 1.023-2.296 1.027-2.307l.419-.797-.033.899c0 .031-.112 2.979-.996 6.344-.963 3.662-2.355 6.439-2.37 6.468l-.431.858z" fill="#575858"/><path fill-rule="evenodd" clip-rule="evenodd" d="M654.861 218.888h-92.55v-.405h92.143v-71.409h.407v71.814z" fill="#575858"/><mask id="a" maskUnits="userSpaceOnUse" x="0" y="2" width="684" height="416"><path fill-rule="evenodd" clip-rule="evenodd" d="M0 417.207h683.019V2.039H0v415.168z" fill="#fff"/></mask><g mask="url(#a)" fill-rule="evenodd" clip-rule="evenodd"><path d="M474.057 393.11h47.05v-.614h-47.05v.614z" fill="#575858"/><path d="M507.669 413.865h.615v-21.492h-.615v21.492zm-21.873 0h.615v-21.492h-.615v21.492zm11.244-17.388c-3.049 0-5.529 2.473-5.529 5.513s2.48 5.514 5.529 5.514 5.529-2.474 5.529-5.514-2.48-5.513-5.529-5.513zm0 11.64c-3.386 0-6.144-2.75-6.144-6.127s2.758-6.127 6.144-6.127 6.145 2.75 6.145 6.127-2.759 6.127-6.145 6.127z" fill="#575858"/><path d="M497.041 400.616c-.761 0-1.379.616-1.379 1.375 0 .758.618 1.374 1.379 1.374.76 0 1.378-.616 1.378-1.374 0-.759-.618-1.375-1.378-1.375zm0 3.361a1.993 1.993 0 0 1-1.994-1.986 1.994 1.994 0 0 1 3.987 0 1.992 1.992 0 0 1-1.993 1.986z" fill="#575858"/><path d="M418.627 255.567h51.534v-.815h-51.534v.815z" fill="#fff"/><path d="M430.871 239.464a33.203 33.203 0 0 0-.436 5.228c0 2.363.25 4.437.436 5.66a38.23 38.23 0 0 0 .437-5.66 32.94 32.94 0 0 0-.437-5.228zm0 13.072l-.201-.948c-.006-.029-.642-3.095-.642-6.896 0-3.487.636-6.364.642-6.39l.201-.887.2.887c.006.026.644 2.903.644 6.39 0 3.801-.638 6.867-.644 6.896l-.2.948zm6.503-13.072a33.203 33.203 0 0 0-.436 5.228c0 2.363.25 4.437.436 5.66a38.23 38.23 0 0 0 .437-5.66 32.94 32.94 0 0 0-.437-5.228zm0 13.072l-.201-.948c-.006-.029-.642-3.095-.642-6.896 0-3.487.636-6.364.642-6.39l.201-.887.2.887c.006.026.644 2.903.644 6.39 0 3.801-.638 6.867-.644 6.896l-.2.948zm15.524-13.072a33.226 33.226 0 0 0-.435 5.228c0 2.363.249 4.437.435 5.66.188-1.223.438-3.297.438-5.66 0-2.166-.25-4.092-.438-5.228zm0 13.072l-.2-.948c-.006-.029-.642-3.095-.642-6.896 0-3.487.636-6.364.642-6.39l.2-.887.2.887c.007.026.645 2.903.645 6.39 0 3.801-.638 6.867-.645 6.896l-.2.948zm-4.154-11.666l.191.075a31.706 31.706 0 0 0-1.201 3.63 38.096 38.096 0 0 0-1.012 5.589 38.15 38.15 0 0 0 1.853-5.335c.55-2.096.797-4.027.904-5.175-.158.353-.346.79-.544 1.291l-.191-.075zm-2.578 11.39l.049-.961c0-.03.164-3.164 1.125-6.826.321-1.22.73-2.457 1.214-3.679.556-1.401 1.021-2.296 1.025-2.304l.417-.803-.031.905c0 .027-.112 2.977-.996 6.341-.961 3.663-2.355 6.44-2.369 6.468l-.434.859zm-22.678-12.798a32.98 32.98 0 0 0-.437 5.23c0 2.363.249 4.437.437 5.66.186-1.223.436-3.297.436-5.66 0-2.167-.25-4.092-.436-5.23zm0 13.074l-.2-.948c-.006-.028-.644-3.095-.644-6.896 0-3.489.638-6.364.644-6.39l.2-.887.2.887c.007.026.643 2.901.643 6.39 0 3.801-.636 6.868-.643 6.896l-.2.948zm38.881-13.074a33.177 33.177 0 0 0-.438 5.23c0 2.365.252 4.439.438 5.662.186-1.223.437-3.297.437-5.662a33.2 33.2 0 0 0-.437-5.23zm0 13.074l-.2-.948c-.007-.028-.645-3.095-.645-6.896 0-3.489.638-6.364.645-6.39l.2-.887.2.887c.006.026.644 2.901.644 6.39 0 3.801-.638 6.868-.644 6.896l-.2.948z" fill="#575858"/><path d="M416.486 245.188h56.825v-.405h-56.825v.405z" fill="#575858"/></g><path fill-rule="evenodd" clip-rule="evenodd" d="M412.423 307.554h6.14V90.158h-6.14v217.396zm-152.563 5.934h11.114v-40.367H103.69v10.255h156.17v30.112z" fill="#fff"/><path fill-rule="evenodd" clip-rule="evenodd" d="M107.867 229.39v53.979h-6.138v-47.858H4.481v-6.121h103.386zM4.482 53.598H56.73v-6.121H4.483v6.12zm255.303 323.507h11.189v-34.166h-11.189v34.166zm152.638-8.097h6.392v-34.269h-6.392v34.269z" fill="#fff"/><path fill-rule="evenodd" clip-rule="evenodd" d="M263.191 377.116h155.538v-11.413H263.191v11.413zm155.372 40.003h248.04v-6.492h-248.04v6.492z" fill="#fff"/><path fill-rule="evenodd" clip-rule="evenodd" d="M411.552 417.119h7.177v-48.111h-7.177v48.111zM0 235.489h6.138V47.475H0v188.014zm456.478-73.766h65.88v-4.078h-65.88v4.078zm153.806 127.655h61.99V285.3h-61.99v4.078zm-99.125 0h71.962V285.3h-71.962v4.078zm-59.204 0h34.144V285.3h-34.144v4.078zm-33.392 0h9.441V285.3h-9.441v4.078zm143.749-140.751h26.592v-4.079h-26.592v4.079zm87.111 120.985h17.382v-4.078h-17.382v4.078zm-33.351-120.985h50.733v-4.079h-50.733v4.079z" fill="#fff"/><path fill-rule="evenodd" clip-rule="evenodd" d="M560.267 173.042h4.089V15.354h-4.089v157.688z" fill="#fff"/><path fill-rule="evenodd" clip-rule="evenodd" d="M584.214 50.24h-21.903v-4.078h17.814v-26.63h4.089V50.24zm82.592 0h-18.36V19.532h4.09v26.63h14.27v4.078zM417.735 234.667h55.573v-6.117h-55.573v6.117zm108.449 51.816h-6.134V229.9l148.796-1.35.055 6.117-142.717 1.295v50.521z" fill="#fff"/><path fill-rule="evenodd" clip-rule="evenodd" d="M560.267 230.23h4.089v-29.969h-4.089v29.969zm88.18 57.136h4.09v-55.757h-4.09v55.757zm-177.181 0h4.089v-58.404h-4.089v58.404zm47.796 12.43h4.09v-13.313h-4.09v13.313zm0 110.88h4.09v-85.78h-4.09v85.78zm-47.048 0h4.089v-55.5h-4.089v55.5z" fill="#fff"/><path fill-rule="evenodd" clip-rule="evenodd" d="M470.312 357.855h14.792v-4.078h-14.792v4.078zm-51.79 0h24.667v-4.078h-24.667v4.078zm0 45.807h14.696v-4.079h-14.696v4.079z" fill="#fff"/><path fill-rule="evenodd" clip-rule="evenodd" d="M435.263 410.676h-4.089v-23.812h-13.7v-4.078h17.789v27.89zm74.817-52.821h12.058v-4.078H510.08v4.078zm-137.362-53.564h-4.09v-25.574h-56.92v25.574h-4.09v-29.652h65.1v29.652zM401.016 2.038v76.894H65.503v17.494h353.141V19.533h246.003v397.673h18.372V2.038H401.016zM65.502 57.437v39.027H47.958v-48.99h17.544v9.963z" fill="#fff"/><path fill-rule="evenodd" clip-rule="evenodd" d="M303.384 93.711h50.763V81.477h-50.763v12.234z" fill="#fff"/><path fill-rule="evenodd" clip-rule="evenodd" d="M303.384 93.102h50.763v-11.01h-50.763v11.01z" fill="#2B2B2B"/><path fill-rule="evenodd" clip-rule="evenodd" d="M303.382 87.902h50.765v-.612h-50.765v.612zM403.653 73.51h12.269V22.89h-12.269v50.62z" fill="#fff"/><path fill-rule="evenodd" clip-rule="evenodd" d="M404.267 73.51h11.041V22.89h-11.041v50.62z" fill="#2B2B2B"/><path fill-rule="evenodd" clip-rule="evenodd" d="M409.479 73.513h.615v-50.62h-.615v50.62zM206.412 93.711h50.829V81.477h-50.829v12.234z" fill="#fff"/><path fill-rule="evenodd" clip-rule="evenodd" d="M206.412 93.102h50.829v-11.01h-50.829v11.01z" fill="#2B2B2B"/><path fill-rule="evenodd" clip-rule="evenodd" d="M206.412 87.902h50.829v-.612h-50.829v.612zm-95.007 5.809h50.4V81.477h-50.4v12.234z" fill="#fff"/><path fill-rule="evenodd" clip-rule="evenodd" d="M111.405 93.102h50.4v-11.01h-50.4v11.01z" fill="#2B2B2B"/><path fill-rule="evenodd" clip-rule="evenodd" d="M111.405 87.902h50.4v-.612h-50.4v.612zm555.419 301.462h12.269v-44.043h-12.269v44.043z" fill="#fff"/><path fill-rule="evenodd" clip-rule="evenodd" d="M667.438 389.364h11.041v-44.043h-11.041v44.043z" fill="#2B2B2B"/><path fill-rule="evenodd" clip-rule="evenodd" d="M672.651 389.364h.616v-44.043h-.616v44.043z" fill="#fff"/><path fill-rule="evenodd" clip-rule="evenodd" d="M57.037 194.845H93.12v-91.919H57.037v91.919zm-.613.61h37.309v-93.143h-37.31v93.143zm40.295-81.483v13.756l14.025-.843v-12.073l-14.025-.84zm-.613 14.404v-15.052l15.251.911v13.227l-15.251.914z" fill="#6D6D6D"/><path fill-rule="evenodd" clip-rule="evenodd" d="M108.412 127.315h.614v-12.93h-.614v12.93zm-11.693 10.902v13.756l14.025-.84v-12.075l-14.025-.841zm-.613 14.404v-15.052l15.251.914v13.225l-15.251.913z" fill="#6D6D6D"/><path fill-rule="evenodd" clip-rule="evenodd" d="M108.412 151.561h.614v-12.928h-.614v12.928zm-11.693 9.292v13.755l14.025-.84v-12.075l-14.025-.84zm-.613 14.404v-15.053l15.251.914v13.225l-15.251.914z" fill="#6D6D6D"/><path fill-rule="evenodd" clip-rule="evenodd" d="M108.412 174.194h.614v-12.928h-.614v12.928zm-31.467 20.955h.614v-92.592h-.614v92.592z" fill="#6D6D6D"/><path fill-rule="evenodd" clip-rule="evenodd" d="M56.73 163.387h20.317v-.612H56.731v.612zm0 20.37h20.52v-.612H56.73v.612zm.352-40.291h19.71v-19.654h-19.71v19.654zm-.613.611h20.936V123.2H56.47v20.877z" fill="#6D6D6D"/><path fill-rule="evenodd" clip-rule="evenodd" d="M70.752 132.533c-.597 0-1.086.485-1.086 1.082 0 .596.489 1.083 1.086 1.083.597 0 1.086-.487 1.086-1.083 0-.597-.489-1.082-1.086-1.082zm0 2.775c-.937 0-1.7-.759-1.7-1.693a1.699 1.699 0 0 1 3.4 0c0 .934-.764 1.693-1.7 1.693z" fill="#6D6D6D"/><mask id="b" maskUnits="userSpaceOnUse" x="0" y="2" width="684" height="416"><path fill-rule="evenodd" clip-rule="evenodd" d="M0 417.207h683.019V2.039H0v415.168z" fill="#fff"/></mask><g mask="url(#b)" fill-rule="evenodd" clip-rule="evenodd" fill="#6D6D6D"><path d="M71.977 133.921h5.197v-.612h-5.197v.612z"/><path d="M59.058 140.417h14.248v-13.48H59.058v13.48zm-.612.612H73.92v-14.703H58.446v14.703zm261.837 55.918h39.293V163.02h-39.293v33.927zm-.615.612h40.521v-35.151h-40.521v35.151zm-15.035-48.733h70.862v-33.542h-70.862v33.542zm-.615.612h72.092v-34.765h-72.092v34.765z"/><path d="M367.635 149.036h.615v-34.058h-.615v34.058zm-55.484 0h.616v-34.058h-.616v34.058zm27.605 0h.615v-26.788h-.615v26.788z"/><path d="M312.458 122.553h55.483v-.611h-55.483v.611z"/><path d="M327.11 122.841c-7.685.235-13.892 6.419-14.138 14.078l.783-.341c6.053-2.636 10.899-7.628 13.355-13.737zm-14.759 15.015v-.466c0-8.363 6.823-15.167 15.211-15.167h.443l-.157.414c-2.458 6.454-7.506 11.739-13.849 14.504l-1.648.715zm41.025-15.029l.342.779c2.644 6.038 7.649 10.87 13.775 13.319-.235-7.663-6.435-13.853-14.117-14.098zm14.739 14.991l-.417-.157c-6.47-2.451-11.772-7.485-14.543-13.81l-.719-1.644h.47c8.385 0 15.209 6.805 15.209 15.169v.442zM304.77 242.006h70.862v-33.54H304.77v33.54zm-.616.611h72.093v-34.765h-72.093v34.765z"/><path d="M312.015 242.311h.615v-34.057h-.615v34.057zm55.482 0h.616v-34.057h-.616v34.057zm-27.604-7.269h.615v-26.788h-.615v26.788z"/><path d="M312.323 235.35h55.483v-.614h-55.483v.614z"/><path d="M367.292 220.372l-.783.34c-6.053 2.637-10.899 7.628-13.355 13.737 7.685-.234 13.893-6.416 14.138-14.077zm-14.589 14.697h-.446l.159-.416c2.458-6.451 7.507-11.738 13.85-14.501l1.648-.718v.469c0 8.362-6.824 15.166-15.211 15.166zm-39.932-14.703c.235 7.663 6.435 13.853 14.117 14.098l-.341-.779c-2.644-6.038-7.65-10.87-13.776-13.319zm15.058 14.718h-.469c-8.387 0-15.211-6.805-15.211-15.169v-.442l.418.157c6.471 2.451 11.771 7.485 14.544 13.812l.718 1.642zM6.948 228.579h19.463V96.385H6.948v132.194zm-.613.611h20.687V95.773H6.335V229.19z"/><path d="M6.948 143.345h19.463v-19.407H6.948v19.407zm-.613.612h20.687v-20.631H6.335v20.631z"/><path d="M12.633 126.745a2.278 2.278 0 0 0-2.278 2.271 2.279 2.279 0 0 0 4.557 0 2.279 2.279 0 0 0-2.28-2.271zm0 5.157a2.89 2.89 0 0 1-2.892-2.886 2.89 2.89 0 0 1 2.892-2.883 2.892 2.892 0 0 1 2.893 2.883 2.892 2.892 0 0 1-2.893 2.886zm8.919 3.782a2.278 2.278 0 0 0-2.28 2.273 2.279 2.279 0 0 0 4.558 0 2.278 2.278 0 0 0-2.277-2.273zm0 5.156a2.89 2.89 0 0 1-2.893-2.883 2.892 2.892 0 0 1 2.893-2.885 2.89 2.89 0 0 1 2.892 2.885 2.89 2.89 0 0 1-2.892 2.883zm-8.919-5.156a2.278 2.278 0 0 0-2.278 2.273 2.278 2.278 0 0 0 4.557 0 2.278 2.278 0 0 0-2.28-2.273zm0 5.156a2.89 2.89 0 0 1-2.892-2.883 2.89 2.89 0 0 1 2.892-2.885 2.892 2.892 0 0 1 2.893 2.885 2.891 2.891 0 0 1-2.893 2.883zm8.919-14.095a2.279 2.279 0 0 0-2.28 2.271 2.28 2.28 0 0 0 4.558 0 2.278 2.278 0 0 0-2.277-2.271zm0 5.157a2.892 2.892 0 0 1-2.893-2.886 2.892 2.892 0 0 1 2.893-2.883 2.89 2.89 0 0 1 2.892 2.883 2.89 2.89 0 0 1-2.892 2.886zm153.888 79.881h36.836v-82.291H175.44v82.291zm-.614.612h38.066V128.88h-38.066v83.515zm42.483-48.636v13.755l14.021-.84v-12.075l-14.021-.84zm-.616 14.404v-15.052l15.252.913v13.225l-15.252.914z"/><path d="M228.999 177.101h.615v-12.929h-.615v12.929zm-11.69 11.898v13.755l14.021-.84v-12.075l-14.021-.84zm-.616 14.404V188.35l15.252.914v13.225l-15.252.914z"/><path d="M228.999 202.34h.615v-12.929h-.615v12.929zm-42.037-77.707h13.794l-.843-13.985h-12.109l-.842 13.985zm14.444.612h-15.094l.916-15.209h13.262l.916 15.209z"/><path d="M187.375 112.974h12.966v-.612h-12.966v.612zm.429 117.76h12.109l.841-13.981h-13.792l.842 13.981zm12.686.614h-13.262l-.916-15.209h15.094l-.916 15.209z"/><path d="M187.375 229.021h12.966v-.614h-12.966v.614zm29.934-91.872v13.755l14.021-.84v-12.075l-14.021-.84zm-.616 14.404v-15.052l15.252.913v13.225l-15.252.914z"/><path d="M228.999 150.492h.615v-12.929h-.615v12.929zm-72.402 26.182l14.025.84v-13.755l-14.025.84v12.075zm14.638 1.489l-15.252-.914v-13.225l15.252-.913v15.052z"/><path d="M158.314 177.101h.614v-12.929h-.614v12.929zm-1.717-27.037l14.025.84v-13.755l-14.025.84v12.075zm14.638 1.489l-15.252-.914v-13.225l15.252-.913v15.052z"/><path d="M158.314 150.492h.614v-12.929h-.614v12.929zm-1.717 51.422l14.025.84v-13.755l-14.025.84v12.075zm14.638 1.489l-15.252-.914v-13.225l15.252-.914v15.053z"/><path d="M158.314 202.34h.614v-12.929h-.614v12.929zm246.843-3.541h1.527a80.482 80.482 0 0 0 3.028-21.932c0-7.465-1.02-14.844-3.028-21.934h-1.527a81.093 81.093 0 0 1 3.003 21.934 81.09 81.09 0 0 1-3.003 21.932zm1.991.612h-2.803l.11-.39a80.442 80.442 0 0 0 3.09-22.154 80.435 80.435 0 0 0-3.09-22.156l-.11-.389h2.803l.063.222a80.968 80.968 0 0 1 3.115 22.323c0 7.6-1.047 15.109-3.115 22.321l-.063.223zm5.17-19.741h-1.902v-.612h1.286v-4.386h-1.286v-.609h1.902v5.607zm48.452-84.325h59.617V20.252H460.77v75.093zm-.616.611h60.849V19.64h-60.849v76.316zm-18.175-59.659h15.963V20.376h-15.963v15.92zm-.614.611h17.193V19.766h-17.193v17.142zm82.016-.611h15.964V20.376h-15.964v15.92zm-.615.611h17.192V19.766h-17.192v17.142zm-38.972 164.507h13.669v-13.633h-13.669v13.633zm-.613.611h14.898v-14.854h-14.898v14.854z"/><path d="M494.152 36.423h22.415V24.668h-22.415v11.755zm-.613.612h23.644V24.058h-23.644v12.977zm-28.949-.612h22.415V24.668H464.59v11.755zm-.613.612h23.643V24.058h-23.643v12.977zm16.396 13.55a73.477 73.477 0 0 1-19.994-2.773l.168-.59a72.792 72.792 0 0 0 38.793.237l21.276-5.74.159.592-21.275 5.74a73.392 73.392 0 0 1-19.127 2.534zM460.629 106.5h59.669v-8.862h-59.669v8.862zm-.613.612h60.897V97.027h-60.897v10.085zm6.874 77.756h45.439v-21.359H466.89v21.359zm-.616.61h46.668v-22.58h-46.668v22.58zm135.099-165.13c-7.821 0-14.184 6.348-14.184 14.147 0 7.801 6.363 14.149 14.184 14.149h30.562c7.823 0 14.188-6.348 14.188-14.149 0-7.8-6.365-14.147-14.188-14.147h-30.562zm30.562 28.908h-30.562c-8.16 0-14.8-6.621-14.8-14.76s6.64-14.76 14.8-14.76h30.562c8.16 0 14.804 6.621 14.804 14.76s-6.644 14.76-14.804 14.76z"/><path d="M608.103 26.73c-4.362 0-7.907 3.538-7.907 7.887 0 4.35 3.545 7.887 7.907 7.887h17.102c4.362 0 7.91-3.538 7.91-7.887 0-4.35-3.548-7.887-7.91-7.887h-17.102zm17.102 16.386h-17.102c-4.699 0-8.523-3.811-8.523-8.499 0-4.685 3.824-8.498 8.523-8.498h17.102c4.701 0 8.525 3.813 8.525 8.498 0 4.688-3.824 8.499-8.525 8.499z"/><path d="M616.656 33.225c-.63 0-1.139.517-1.139 1.152 0 .636.509 1.154 1.139 1.154.629 0 1.139-.518 1.139-1.154 0-.635-.51-1.152-1.139-1.152zm0 2.917a1.762 1.762 0 0 1-1.753-1.765 1.76 1.76 0 0 1 1.753-1.764 1.76 1.76 0 0 1 1.752 1.764 1.76 1.76 0 0 1-1.752 1.765z"/><path d="M616.347 32.92h.615V22.86h-.615v10.06z"/><path d="M623.826 23.165h-14.342v-3.122h.616v2.51h13.111v-2.596h.615v3.208zM645.1 58.833c-4.165 0-7.551 3.379-7.551 7.53 0 4.153 3.386 7.532 7.551 7.532h18.669V58.833H645.1zm19.285 15.674H645.1c-4.502 0-8.166-3.654-8.166-8.144 0-4.488 3.664-8.142 8.166-8.142h19.285v16.286z"/><path d="M645.229 61.886c-2.476 0-4.49 2.008-4.49 4.477a4.49 4.49 0 0 0 4.49 4.48h9.355v-8.958h-9.355zm9.97 9.567h-9.97c-2.816 0-5.106-2.282-5.106-5.09 0-2.806 2.29-5.09 5.106-5.09h9.97v10.18z"/><path d="M648.673 66.67h15.401v-.612h-15.401v.612zm-3.604 14.854c-4.147 0-7.521 3.364-7.521 7.497 0 4.136 3.374 7.5 7.521 7.5l18.701.039V81.563l-18.701-.04zm19.315 15.647l-19.315-.038c-4.484 0-8.136-3.638-8.136-8.112 0-4.471 3.652-8.109 8.136-8.109l19.315.039v16.22z"/><path d="M645.195 84.564c-2.464 0-4.47 2-4.47 4.46a4.47 4.47 0 0 0 4.47 4.458h9.316v-8.918h-9.316zm9.929 9.528h-9.929c-2.804 0-5.084-2.273-5.084-5.069 0-2.797 2.28-5.071 5.084-5.071h9.929v10.14zm3.597 2.774h.615V81.249h-.615v15.617zm-93.117-12.729h15.675c.744 0 1.35-.606 1.35-1.348V62.437a1.35 1.35 0 0 0-1.35-1.347h-15.675v23.047zm15.675.611h-16.291v-24.27h16.291c1.082 0 1.965.879 1.965 1.96v20.35c0 1.082-.883 1.96-1.965 1.96z"/><path d="M574.116 65.264c-2.87 0-5.206 3.297-5.206 7.348 0 4.054 2.336 7.349 5.206 7.349 2.869 0 5.204-3.295 5.204-7.349 0-4.051-2.335-7.348-5.204-7.348zm0 15.309c-3.208 0-5.821-3.57-5.821-7.96 0-4.389 2.613-7.961 5.821-7.961 3.209 0 5.82 3.572 5.82 7.96 0 4.39-2.611 7.96-5.82 7.96z"/><path d="M574.116 71.477c-.637 0-1.155.51-1.155 1.136 0 .626.518 1.136 1.155 1.136.638 0 1.156-.51 1.156-1.136 0-.626-.518-1.136-1.156-1.136zm0 2.883a1.76 1.76 0 0 1-1.77-1.747 1.76 1.76 0 0 1 1.77-1.747 1.76 1.76 0 0 1 1.771 1.747 1.76 1.76 0 0 1-1.771 1.748zm-8.512 35.313h15.675c.744 0 1.35-.606 1.35-1.348V87.974c0-.742-.606-1.348-1.35-1.348h-15.675v23.047zm15.675.612h-16.291v-24.27h16.291c1.082 0 1.965.878 1.965 1.959v20.351c0 1.081-.883 1.96-1.965 1.96z"/><path d="M574.116 90.8c-2.87 0-5.206 3.297-5.206 7.349 0 4.054 2.336 7.349 5.206 7.349 2.869 0 5.204-3.295 5.204-7.35 0-4.05-2.335-7.348-5.204-7.348zm0 15.309c-3.208 0-5.821-3.57-5.821-7.96 0-4.388 2.613-7.96 5.821-7.96 3.209 0 5.82 3.572 5.82 7.96 0 4.39-2.611 7.96-5.82 7.96z"/><path d="M574.116 97.014c-.637 0-1.155.51-1.155 1.136 0 .625.518 1.135 1.155 1.135.638 0 1.156-.51 1.156-1.135 0-.627-.518-1.136-1.156-1.136zm0 2.883a1.76 1.76 0 0 1-1.77-1.748 1.76 1.76 0 0 1 1.77-1.747 1.76 1.76 0 0 1 1.771 1.748 1.76 1.76 0 0 1-1.771 1.747zm56.941 43.544h32.845V111.74h-32.845v31.701zm-.616.612h34.077v-32.924h-34.077v32.924z"/><path d="M648.759 127.979h15.573v-.611h-15.573v.611z"/><path d="M647.754 126.537c-.629 0-1.139.51-1.139 1.136 0 .628.51 1.137 1.139 1.137a1.14 1.14 0 0 0 1.141-1.137 1.14 1.14 0 0 0-1.141-1.136zm0 2.885a1.752 1.752 0 0 1-1.752-1.749 1.75 1.75 0 0 1 1.752-1.748c.968 0 1.755.783 1.755 1.748 0 .964-.787 1.749-1.755 1.749zM628.7 243.309c-4.163 0-7.549 3.377-7.549 7.528 0 4.154 3.386 7.532 7.549 7.532h18.669v-15.06H628.7zm19.284 15.674H628.7c-4.501 0-8.165-3.654-8.165-8.146 0-4.488 3.664-8.142 8.165-8.142h19.284v16.288z"/><path d="M628.829 246.361c-2.477 0-4.491 2.007-4.491 4.476a4.491 4.491 0 0 0 4.491 4.48h9.354v-8.956h-9.354zm9.97 9.567h-9.971c-2.815 0-5.105-2.283-5.105-5.091 0-2.806 2.29-5.089 5.105-5.089h9.971v10.18z"/><path d="M632.273 251.145h15.402v-.614h-15.402v.614zm-3.605 14.854c-4.144 0-7.518 3.362-7.518 7.497 0 4.136 3.374 7.498 7.518 7.498l18.702.039v-14.995l-18.702-.039zm19.315 15.647l-19.315-.038c-4.484 0-8.134-3.64-8.134-8.112 0-4.473 3.65-8.111 8.134-8.111l19.315.043v16.218z"/><path d="M628.794 269.04c-2.464 0-4.47 1.998-4.47 4.457 0 2.459 2.006 4.457 4.47 4.457h9.316v-8.914h-9.316zm9.93 9.528h-9.93c-2.803 0-5.083-2.276-5.083-5.071 0-2.798 2.28-5.071 5.083-5.071h9.93v10.142zm3.597 2.772h.616v-15.616h-.616v15.616zM446.1 409.774h15.037l.039-18.649c0-4.135-3.372-7.497-7.519-7.497-4.146 0-7.518 3.362-7.518 7.497l-.039 18.649zm15.649.614h-16.265l.039-19.263c0-4.473 3.65-8.111 8.134-8.111 4.487 0 8.134 3.638 8.134 8.111l-.042 19.263z"/><path d="M449.188 400.539h8.939v-9.288a4.466 4.466 0 0 0-4.467-4.457c-2.468 0-4.472 1.998-4.472 4.457v9.288zm9.555.613h-10.171v-9.901c0-2.796 2.282-5.071 5.088-5.071 2.803 0 5.083 2.275 5.083 5.071v9.901zm-12.949 4.2h15.661v-.614h-15.661v.614zm-26.07-25.988h15.675a1.35 1.35 0 0 0 1.35-1.346v-15.394a1.35 1.35 0 0 0-1.35-1.346h-15.675v18.086zm15.675.614h-16.291v-19.314h16.291c1.082 0 1.965.881 1.965 1.96v15.394c0 1.079-.883 1.96-1.965 1.96z"/><path d="M430.181 369.185c-.63 0-1.141.508-1.141 1.136 0 .626.511 1.135 1.141 1.135s1.139-.509 1.139-1.135c0-.628-.509-1.136-1.139-1.136zm0 2.885a1.755 1.755 0 0 1-1.754-1.749 1.754 1.754 0 0 1 3.507 0c0 .962-.786 1.749-1.753 1.749z"/><path d="M422.665 370.627h6.053v-.613h-6.053v.613z"/><path d="M422.972 377.47h-3.132v-.613h2.517v-13.072h-2.603v-.614h3.218v14.299zm137.054 32.229h59.617v-75.093h-59.617v75.093zm-.616.612h60.849V333.99H559.41v76.321zm63.061-.74h15.964v-15.917h-15.964v15.917zm-.616.613h17.193v-17.142h-17.193v17.142zm-80.787-.613h15.964v-15.917h-15.964v15.917zm-.613.613h17.193v-17.142h-17.193v17.142z"/><path d="M563.845 405.282h22.415V393.53h-22.415v11.752zm-.614.612h23.644v-12.978h-23.644v12.978zm30.177-.612h22.415V393.53h-22.415v11.752zm-.613.612h23.644v-12.978h-23.644v12.978zm-32.998-17.665l-.159-.589 21.274-5.74a73.458 73.458 0 0 1 39.122.238l-.167.59a72.806 72.806 0 0 0-38.796-.237l-21.274 5.738zm-18.722-150.272c-7.824 0-14.187 6.345-14.187 14.146v17.25c0 7.804 6.363 14.149 14.187 14.149 7.821 0 14.184-6.345 14.184-14.149v-17.25c0-7.801-6.363-14.146-14.184-14.146zm0 46.159c-8.161 0-14.803-6.623-14.803-14.763v-17.25c0-8.137 6.642-14.76 14.803-14.76 8.16 0 14.8 6.623 14.8 14.76v17.25c0 8.14-6.64 14.763-14.8 14.763z"/><path d="M541.197 249.275c-4.362 0-7.91 3.535-7.91 7.885v7.138c0 4.35 3.548 7.885 7.91 7.885 4.361 0 7.907-3.535 7.907-7.885v-7.138c0-4.35-3.546-7.885-7.907-7.885zm-.001 23.522c-4.7 0-8.524-3.813-8.524-8.499v-7.138c0-4.686 3.824-8.499 8.524-8.499 4.699 0 8.523 3.813 8.523 8.499v7.138c0 4.686-3.824 8.499-8.523 8.499z"/><path d="M540.954 259.595c-.638 0-1.155.508-1.155 1.134 0 .626.517 1.134 1.155 1.134s1.156-.508 1.156-1.134c0-.626-.518-1.134-1.156-1.134zm0 2.881a1.76 1.76 0 0 1-1.77-1.747c0-.963.793-1.748 1.77-1.748.978 0 1.771.785 1.771 1.748 0 .962-.793 1.747-1.771 1.747z"/><path d="M529.404 261.036h10.087v-.614h-10.087v.614z"/><path d="M529.713 267.879h-3.133v-.614h2.517v-13.072h-2.603v-.614h3.219v14.3zm43.723-31.687v15.446a1.35 1.35 0 0 0 1.349 1.348h27.04a1.35 1.35 0 0 0 1.35-1.348v-15.627l-29.739.181zm28.389 17.407h-27.04a1.968 1.968 0 0 1-1.965-1.961v-16.056l30.97-.189v16.245c0 1.08-.883 1.961-1.965 1.961z"/><path d="M588.306 239.306c-4.063 0-7.369 2.329-7.369 5.192 0 2.861 3.306 5.189 7.369 5.189s7.37-2.328 7.37-5.189c0-2.863-3.307-5.192-7.37-5.192zm0 10.995c-4.402 0-7.985-2.604-7.985-5.803s3.583-5.805 7.985-5.805c4.4 0 7.983 2.606 7.983 5.805s-3.583 5.803-7.983 5.803z"/><path d="M588.306 243.345c-.63 0-1.139.518-1.139 1.152 0 .636.509 1.152 1.139 1.152s1.139-.516 1.139-1.152c0-.634-.509-1.152-1.139-1.152zm0 2.918a1.762 1.762 0 0 1-1.752-1.766 1.76 1.76 0 0 1 1.752-1.766 1.76 1.76 0 0 1 1.752 1.766c0 .972-.785 1.766-1.752 1.766zm-414.609 20.373a81.043 81.043 0 0 0 21.994 3.016c7.492 0 14.89-1.013 21.996-3.016v-1.525a81.698 81.698 0 0 1-21.996 2.997 81.705 81.705 0 0 1-21.994-2.997v1.525zm21.994 3.63a81.645 81.645 0 0 1-22.384-3.104l-.223-.063v-2.8l.391.113a80.999 80.999 0 0 0 22.216 3.083 81.004 81.004 0 0 0 22.219-3.083l.39-.113v2.8l-.223.063a81.649 81.649 0 0 1-22.386 3.104zm2.814 1.985h-5.623v-1.894h.611v1.281h4.399v-1.281h.613v1.894z"/></g></svg>