<svg xmlns="http://www.w3.org/2000/svg" xmlns:xlink="http://www.w3.org/1999/xlink"><symbol id="arrow-down" viewBox="0 0 15 9"><path d="M15 1.327L13.617 0l-6.13 6.292L1.41 0 0 1.327 7.486 9 15 1.327z"/></symbol><symbol id="arrow-left" viewBox="0 0 9 15"><path d="M7.673 15L9 13.617l-6.292-6.13L9 1.41 7.673 0 0 7.486 7.673 15z"/></symbol><symbol id="arrow-link" viewBox="0 0 17 13"><path d="M16.93 6.124L10.822.046c-.14-.092-.326-.046-.326.14V3.34c0 .047-.047.093-.093.14C4.854 4.268 1.45 7.702.005 12.759c-.047.185.187.325.326.185C2.943 10.021 6.3 9.001 10.356 9.001c.093 0 .14.046.14.093v3.247c0 .186.186.279.326.14l6.108-6.078c.094-.047.094-.186 0-.279z"/></symbol><symbol id="arrow-right" viewBox="0 0 9 15"><path d="M1.327 0L0 1.383l6.292 6.13L0 13.59 1.327 15 9 7.514 1.327 0z"/></symbol><symbol id="arrow-up" viewBox="0 0 15 9"><path d="M0 7.673L1.383 9l6.13-6.292L13.59 9 15 7.673 7.514 0 0 7.673z"/></symbol><symbol id="close" viewBox="0 0 21 21"><path d="M1.186.764l19.066 19.472M19.814.764L.748 20.236"/></symbol><symbol id="facebook" viewBox="0 0 24 24"><path d="M12 0C5.379 0 0 5.379 0 12s5.379 12 12 12 12-5.379 12-12S18.621 0 12 0zm0 1c6.081 0 11 4.919 11 11s-4.919 11-11 11S1 18.081 1 12 5.919 1 12 1z"/><path d="M9.11 18h.93v-5.04h3.78v-.9h-3.78V8.235h4.83V7.35H9.11V18z"/></symbol><symbol id="fullscreen" viewBox="0 0 26 26"><path d="M17.333.433h8.234v8.234M14.82 11.18L25.22.78M8.667 25.567H.433v-8.234M11.18 14.82L.78 25.22m24.787-7.887v8.234h-8.234M14.82 14.82l10.4 10.4M.433 8.667V.433h8.234M11.18 11.18L.78.78" stroke="#fff" stroke-miterlimit="10"/></symbol><symbol id="instagram" viewBox="0 0 24 24"><path d="M12 0C5.379 0 0 5.379 0 12s5.379 12 12 12 12-5.379 12-12S18.621 0 12 0zm0 1c6.081 0 11 4.919 11 11s-4.919 11-11 11S1 18.081 1 12 5.919 1 12 1z"/><path d="M12 8c-2.203 0-4 1.797-4 4 0 2.203 1.797 4 4 4 2.203 0 4-1.797 4-4 0-2.203-1.797-4-4-4zm0 1c1.663 0 3 1.337 3 3s-1.337 3-3 3-3-1.337-3-3 1.337-3 3-3zm5-4c-1.099 0-2 .901-2 2s.901 2 2 2 2-.901 2-2-.901-2-2-2zm0 1c.558 0 1 .442 1 1s-.442 1-1 1-1-.442-1-1 .442-1 1-1z"/><path d="M1 12v1h8v-1H1zm14 0v1h8v-1h-8z"/></symbol><symbol id="menu" viewBox="0 0 23 23"><path d="M.605.5h21.79M.605 11.25h21.79m-21.79 11h21.79"/></symbol><symbol id="pdf-text" viewBox="0 0 16 7"><path fill-rule="evenodd" clip-rule="evenodd" d="M2.575.8H.8v5.4h1.262V4.383h.513c.585 0 1.095-.176 1.462-.493.368-.32.58-.773.58-1.298 0-.526-.212-.98-.58-1.299C3.67.976 3.16.8 2.575.8zm4.99 0H5.692v5.4h1.871c1.667 0 2.964-1.156 2.964-2.7 0-1.544-1.297-2.7-2.964-2.7zM15.2.8h-3.461v5.4h1.262V4.06h1.716V2.87H13v-.867h2.2V.8zM2.062 3.223V1.96h.476c.283 0 .483.072.61.178a.562.562 0 0 1 .193.453c0 .2-.072.35-.194.452-.126.106-.326.179-.61.179h-.475zm4.892 1.816V1.961h.61c1.037 0 1.687.674 1.687 1.539 0 .865-.65 1.54-1.687 1.54h-.61z"/></symbol><symbol id="pdf" viewBox="0 0 13 16"><path d="M13 4v1.6h-.813V4H9.75c-.488 0-.813-.32-.813-.8V.8H.813v4.8H0V.8C0 .32.325 0 .813 0h8.124c.244 0 .407.08.57.24l3.25 3.2c.162.16.243.32.243.56zm-.813 11.2H.813v-.8H0v.8c0 .48.325.8.813.8h11.374c.488 0 .813-.32.813-.8v-.8h-.813v.8zM9.75 12.8h.813v-2.4h1.624v-.8h-1.624V8H13v-.8H9.75v5.6zm-8.938 0H0V7.2h1.625c.894 0 1.625.72 1.625 1.6 0 .88-.731 1.6-1.625 1.6H.812v2.4zm0-3.2h.813c.487 0 .813-.32.813-.8 0-.48-.326-.8-.813-.8H.812v1.6zM6.5 12.8H4.875V7.2H6.5c.894 0 1.625.72 1.625 1.6v2.4c0 .88-.731 1.6-1.625 1.6zm.813-4c0-.48-.325-.8-.813-.8h-.813v4H6.5c.487 0 .813-.32.813-.8V8.8z"/></symbol><symbol id="phone" viewBox="0 0 31 31"><path fill-rule="evenodd" clip-rule="evenodd" d="M24.565 21.904l-.736.738-.039.04c-1.277 1.282-2.36 1.593-4.064 1.088-1.78-.545-3.367-1.516-4.8-2.682-2.05-1.67-4.257-3.847-5.689-6.101-1.432-2.332-1.897-4.781.116-6.802l.039-.039.735-.738c.542-.544 1.432-.544 2.013 0l2.284 2.293c.542.544.542 1.438 0 2.021l-1.355 1.36.039.039a20.5 20.5 0 0 0 5.767 5.79l.038.04 1.355-1.36c.542-.545 1.433-.545 2.013 0l2.284 2.292c.58.583.58 1.477 0 2.021zM15.5 0C6.993 0 .07 6.923 0 15.397c-.034 4.133 1.55 8.06 4.478 10.987 2.893 2.962 6.786 4.581 10.919 4.616h.103c8.508 0 15.43-6.924 15.5-15.397C31.068 7.061 24.145.07 15.5 0z"/></symbol><symbol id="play" viewBox="0 0 39 39"><circle cx="19.5" cy="19.5" r="19" stroke="#fff"/><path d="M15 13.072L27 20l-12 6.928V13.072z" stroke="#fff"/></symbol><symbol id="share" viewBox="0 0 17 13"><path d="M16.93 6.124L10.822.046c-.14-.092-.326-.046-.326.14V3.34c0 .047-.047.093-.093.14C4.854 4.268 1.45 7.702.005 12.759c-.047.185.187.325.326.185C2.943 10.021 6.3 9.001 10.356 9.001c.093 0 .14.046.14.093v3.247c0 .186.186.279.326.14l6.108-6.078c.094-.047.094-.186 0-.279z"/></symbol></svg>